<?xml version="1.0" standalone="no"?>
<!DOCTYPE svg PUBLIC "-//W3C//DTD SVG 20010904//EN"
 "http://www.w3.org/TR/2001/REC-SVG-20010904/DTD/svg10.dtd">
<svg version="1.0" xmlns="http://www.w3.org/2000/svg"
 width="1882.000000pt" height="725.000000pt" viewBox="0 0 1882.000000 725.000000"
 preserveAspectRatio="xMidYMid meet">
<metadata>
Created by potrace 1.16, written by Peter Selinger 2001-2019
</metadata>
<g transform="translate(0.000000,725.000000) scale(0.100000,-0.100000)"
fill="#000000" stroke="none">
<path d="M16935 6902 c-38 -26 -95 -67 -125 -90 -96 -73 -246 -101 -377 -71
-48 11 -279 96 -298 109 -11 8 -178 -12 -240 -28 -22 -6 -49 -11 -60 -11 -11
0 -78 -21 -150 -45 l-130 -46 -150 6 c-82 4 -161 7 -175 7 -14 0 -67 -9 -118
-21 -132 -31 -210 -41 -347 -42 l-120 -2 -136 -68 c-75 -38 -144 -70 -155 -70
-66 -5 -109 -3 -189 9 -49 7 -98 17 -108 22 -10 5 -22 7 -28 3 -6 -3 -59 -10
-117 -16 -59 -5 -122 -11 -139 -12 -18 -2 -38 -8 -45 -13 -7 -6 -59 -34 -115
-64 -98 -51 -104 -52 -150 -43 -45 8 -52 15 -118 99 -38 49 -97 118 -130 152
l-60 63 -45 -11 c-25 -5 -81 -32 -125 -59 -115 -70 -148 -75 -276 -45 -57 14
-117 31 -134 37 -16 7 -40 11 -52 10 -13 -2 -87 4 -165 12 -201 23 -407 34
-443 25 -16 -5 -79 -20 -140 -34 -60 -14 -132 -32 -160 -40 -27 -8 -97 -24
-155 -36 -58 -12 -114 -25 -125 -29 -39 -16 -224 -50 -239 -44 -8 3 -23 1 -33
-5 -22 -11 -290 -26 -478 -26 -126 1 -132 2 -205 34 -180 82 -182 82 -278 65
-48 -8 -103 -19 -123 -24 -19 -5 -53 -12 -75 -15 -21 -2 -95 -13 -164 -23 -69
-11 -129 -17 -133 -15 -5 3 -19 1 -30 -5 -46 -23 -144 -61 -197 -76 -79 -22
-149 -15 -280 28 l-114 38 -111 -12 c-149 -15 -199 -10 -348 39 l-129 42 -56
-16 c-32 -9 -94 -29 -140 -46 -46 -16 -88 -27 -93 -23 -6 3 -16 1 -23 -5 -7
-6 -101 -15 -217 -21 -112 -6 -235 -12 -274 -14 -62 -3 -84 -11 -204 -70 -73
-36 -143 -66 -155 -66 -12 0 -26 -4 -32 -9 -24 -24 -256 -42 -269 -21 -4 6
-14 8 -23 6 -10 -3 -44 10 -77 29 -33 20 -93 51 -133 71 -83 40 -85 40 -242
-24 -126 -51 -162 -54 -328 -22 -57 11 -108 18 -113 15 -23 -15 -230 -67 -279
-71 -34 -2 -103 6 -182 21 l-128 25 -123 -24 c-68 -14 -144 -23 -170 -22 -51
4 -260 52 -289 67 -10 5 -19 5 -23 -1 -3 -6 -14 -10 -23 -10 -9 0 -55 -16
-102 -36 -127 -53 -167 -53 -329 2 l-133 45 -123 -61 c-67 -33 -129 -60 -137
-60 -8 0 -19 -5 -24 -10 -13 -13 -181 -49 -252 -55 -31 -2 -96 -7 -144 -11
-54 -4 -110 -3 -150 5 -54 10 -265 84 -321 113 -11 5 -23 6 -30 0 -7 -5 -25
-12 -41 -16 -16 -4 -72 -26 -125 -49 l-96 -42 -171 -2 c-143 -1 -190 -6 -287
-28 -141 -31 -160 -34 -315 -41 -88 -5 -126 -3 -137 6 -8 6 -19 9 -24 5 -6 -3
-61 14 -123 38 -125 50 -160 62 -169 59 -13 -3 -228 -24 -279 -27 -30 -1 -71
3 -90 11 -80 30 -118 35 -152 20 -38 -17 -88 -60 -88 -75 0 -6 -20 -71 -44
-144 -62 -185 -226 -762 -233 -819 -4 -33 -2 -48 6 -48 6 0 11 12 11 27 0 49
228 843 265 923 41 88 78 130 114 130 10 0 57 -14 107 -30 69 -24 94 -28 114
-21 44 18 233 31 291 21 30 -5 106 -30 169 -55 l115 -46 155 5 c120 3 179 10
260 30 58 14 128 28 155 31 64 7 305 6 317 -1 5 -3 14 -1 21 4 7 5 62 31 122
56 145 63 177 63 310 7 55 -24 109 -48 120 -55 15 -10 65 -12 185 -11 165 3
255 13 361 40 31 8 63 15 71 15 8 0 63 27 124 60 147 80 163 81 332 24 l132
-44 53 16 c28 10 85 30 125 46 47 18 91 28 125 28 46 0 203 -36 265 -61 16 -6
58 -1 140 16 145 31 204 31 360 1 87 -17 133 -21 155 -15 18 5 71 20 120 34
106 31 196 40 262 25 27 -6 81 -15 118 -20 74 -9 107 -1 232 55 34 15 83 29
113 30 56 4 51 6 242 -97 56 -30 76 -35 138 -37 40 -1 101 3 135 10 34 6 73
12 87 13 14 1 81 30 150 65 142 72 203 90 310 91 123 0 433 21 455 30 205 87
268 94 419 45 61 -20 118 -40 127 -45 9 -5 72 -2 148 6 148 15 166 13 351 -40
136 -40 128 -41 290 20 36 13 81 26 100 30 19 3 44 9 55 14 28 12 245 39 262
33 7 -3 19 -1 26 5 25 20 214 54 276 49 53 -5 196 -59 283 -107 10 -5 23 -8
30 -5 7 2 88 6 180 9 92 3 185 8 205 11 21 3 81 7 133 9 52 3 148 16 214 30
65 14 122 23 127 20 5 -2 19 1 31 9 13 8 79 26 148 41 69 14 145 33 170 41
159 51 341 68 485 45 33 -5 101 -11 150 -14 118 -7 275 -31 352 -55 34 -10 88
-22 120 -25 57 -7 60 -6 148 45 132 76 152 83 196 70 37 -11 67 -43 154 -160
23 -31 63 -77 89 -103 l46 -47 52 9 c28 6 89 31 135 56 101 55 150 70 268 83
98 11 172 8 310 -14 50 -8 104 -15 120 -15 18 0 84 27 158 65 70 36 139 65
152 65 13 0 27 5 30 11 5 7 54 10 139 9 72 -1 138 0 146 3 8 3 68 17 132 31
106 23 132 25 269 21 83 -3 156 -8 161 -11 6 -4 20 -2 31 4 20 9 184 59 317
96 90 25 190 37 249 30 31 -3 103 -25 161 -49 58 -23 114 -46 125 -50 37 -14
150 -16 246 -4 l97 12 98 74 c119 90 136 99 195 108 38 6 61 1 145 -30 54 -20
109 -43 121 -51 12 -8 30 -14 39 -14 21 0 231 -49 259 -60 11 -5 34 -11 50
-13 29 -4 183 -41 237 -57 21 -6 53 2 135 32 150 55 161 58 223 58 61 0 216
-34 237 -52 10 -8 17 -8 25 0 16 16 0 32 -30 32 -15 0 -43 5 -62 10 -19 6 -72
17 -118 25 l-82 15 -113 -41 c-170 -61 -204 -63 -344 -28 -64 16 -122 34 -129
40 -7 6 -17 8 -23 5 -11 -7 -252 52 -265 65 -6 5 -19 9 -30 9 -12 0 -55 14
-96 31 -61 25 -178 59 -200 59 -3 0 -36 -22 -75 -48z"/>
<path d="M16964 6668 c-27 -17 -87 -63 -134 -103 -110 -93 -162 -111 -293
-100 -51 4 -97 11 -104 17 -7 5 -17 7 -22 4 -5 -4 -63 15 -128 42 -65 27 -127
53 -138 57 -53 21 -288 -12 -375 -52 -230 -106 -258 -112 -429 -89 -117 15
-163 12 -325 -24 -23 -5 -75 -11 -116 -15 -258 -21 -254 -21 -369 -95 -59 -37
-120 -74 -136 -83 -45 -23 -135 -15 -255 23 l-105 33 -125 -13 c-69 -7 -136
-12 -150 -12 -14 0 -27 -3 -30 -7 -3 -4 -53 -31 -112 -60 -163 -82 -183 -75
-325 119 -22 30 -61 76 -87 102 -45 46 -48 48 -86 39 -39 -9 -73 -26 -183 -93
-31 -20 -76 -39 -100 -42 -43 -7 -192 15 -257 36 -19 7 -38 11 -42 10 -9 -2
-236 46 -258 54 -8 4 -42 8 -75 10 -33 2 -105 8 -160 12 -55 5 -107 5 -115 1
-8 -4 -73 -20 -145 -35 -71 -15 -186 -47 -255 -71 -69 -24 -137 -45 -150 -47
-14 -1 -36 -7 -50 -14 -37 -17 -145 -42 -204 -48 -28 -3 -89 -9 -136 -14 -118
-14 -476 -8 -491 7 -6 6 -17 9 -23 7 -7 -3 -52 14 -100 36 -179 83 -174 82
-274 55 -48 -13 -107 -31 -131 -39 -24 -9 -56 -16 -72 -16 -15 0 -30 -4 -33
-9 -5 -7 -134 -21 -251 -26 -16 -1 -50 -11 -75 -22 -203 -90 -266 -96 -445
-46 -100 28 -120 31 -220 27 -118 -4 -159 2 -300 47 -182 58 -191 57 -349 -15
-107 -49 -178 -64 -337 -71 -74 -3 -183 -9 -244 -14 -60 -5 -112 -9 -115 -8
-3 1 -16 -6 -30 -14 -86 -54 -234 -129 -281 -142 -106 -31 -175 -31 -304 -1
-16 4 -70 33 -120 65 -49 31 -109 65 -131 74 l-42 16 -68 -35 c-38 -20 -97
-54 -132 -75 -82 -51 -136 -58 -268 -36 -54 9 -102 19 -105 21 -4 2 -62 -10
-129 -26 -160 -40 -211 -43 -355 -23 -145 20 -129 20 -244 -1 -134 -24 -198
-20 -323 20 -59 19 -116 34 -127 34 -11 0 -23 4 -26 10 -4 6 -12 6 -23 0 -60
-32 -243 -101 -280 -105 -30 -3 -71 4 -135 24 -143 45 -166 47 -227 16 -28
-14 -83 -46 -121 -71 -38 -24 -78 -44 -89 -44 -11 0 -20 -4 -20 -9 0 -15 -187
-81 -259 -91 -61 -9 -81 -7 -173 16 -56 14 -113 32 -125 40 -12 8 -29 14 -38
14 -8 0 -46 15 -83 34 -37 18 -89 41 -117 50 -27 10 -58 22 -67 27 -11 5 -27
3 -45 -6 -15 -8 -32 -15 -37 -15 -6 0 -55 -25 -110 -57 -55 -31 -107 -56 -115
-56 -9 0 -21 -4 -28 -9 -6 -5 -76 -11 -155 -13 -83 -2 -192 -13 -260 -25 -64
-11 -131 -22 -150 -24 -18 -2 -76 -12 -128 -21 -139 -24 -195 -16 -300 44
-185 107 -171 102 -258 86 -42 -8 -105 -24 -140 -36 -70 -23 -125 -22 -218 4
-28 8 -62 13 -77 10 -31 -6 -107 -73 -107 -95 0 -9 -6 -31 -14 -49 -45 -109
-266 -895 -266 -948 0 -19 4 -30 10 -26 5 3 10 17 10 30 0 26 137 532 206 758
89 294 123 336 242 301 120 -35 120 -35 227 -1 71 22 119 31 165 31 70 0 57 5
249 -103 85 -47 117 -50 269 -26 51 9 98 13 103 9 5 -3 15 -1 22 4 10 8 237
49 287 51 8 1 79 4 158 7 l142 7 128 68 c161 87 190 90 321 28 47 -22 97 -48
111 -57 14 -9 32 -17 40 -18 8 -1 48 -11 87 -23 40 -12 103 -27 140 -34 75
-14 97 -9 266 54 43 16 87 29 97 29 11 0 23 6 27 13 15 23 197 126 242 136 46
10 51 9 227 -43 l91 -27 125 56 c154 68 176 69 341 15 132 -42 141 -43 327
-10 65 11 149 8 280 -10 116 -16 101 -17 235 15 140 33 198 37 310 20 151 -23
173 -24 186 -9 6 8 16 14 21 14 5 0 41 20 79 45 109 71 141 84 187 80 23 -2
47 -7 54 -11 7 -4 60 -37 118 -74 92 -59 112 -67 160 -70 125 -8 255 1 273 19
6 6 16 11 21 11 6 0 58 27 116 60 130 74 176 88 320 94 260 11 407 26 446 45
223 106 259 110 424 51 111 -40 119 -42 255 -44 171 -4 200 -7 293 -35 97 -29
180 -42 200 -32 41 21 221 84 262 92 73 15 190 28 255 30 33 1 65 5 70 9 6 4
61 24 123 44 155 50 176 48 360 -43 63 -30 96 -40 158 -45 105 -9 313 -8 449
2 99 8 330 51 380 72 26 11 254 84 325 104 136 39 199 49 325 50 130 1 160 -3
385 -51 63 -13 138 -28 165 -33 28 -5 86 -16 130 -24 138 -26 149 -24 265 49
168 104 180 102 303 -50 48 -61 106 -129 130 -152 41 -41 43 -42 89 -33 26 5
91 32 146 59 55 28 102 47 106 44 3 -3 11 -1 18 5 19 15 210 34 266 27 26 -4
85 -18 131 -32 46 -13 108 -28 138 -33 60 -10 56 -12 214 87 127 79 173 94
309 100 67 2 161 14 225 28 127 28 214 31 372 11 104 -13 114 -13 150 4 107
52 242 110 250 109 4 -1 20 3 35 9 50 21 157 34 231 29 66 -5 175 -43 312
-108 22 -10 214 -15 287 -7 40 5 60 16 130 74 208 174 202 174 406 22 l95 -71
126 6 c143 7 188 2 354 -41 l119 -31 125 40 c68 23 145 42 171 44 57 5 216
-21 256 -41 24 -11 31 -12 37 -2 12 20 2 24 -111 43 -58 9 -121 21 -140 26
-28 7 -55 1 -155 -33 -150 -51 -216 -54 -355 -14 -52 15 -102 30 -110 35 -8 4
-46 4 -85 0 -99 -11 -203 -11 -210 1 -3 6 -16 10 -27 10 -11 0 -59 29 -107 64
-47 35 -109 75 -137 89 l-50 25 -50 -30z"/>
<path d="M17258 5086 c-37 -13 -119 -79 -193 -155 -21 -23 -44 -41 -50 -42 -5
0 -52 -47 -104 -105 -131 -144 -155 -159 -250 -159 -68 0 -85 5 -156 40 -44
21 -87 40 -95 41 -8 1 -76 23 -151 48 l-136 46 -71 -35 -71 -34 -43 24 c-24
13 -61 27 -84 30 -41 7 -41 7 -115 -74 l-75 -81 -75 -3 c-40 -2 -83 -8 -94
-14 -11 -5 -42 -16 -69 -23 -35 -10 -44 -15 -31 -20 13 -5 3 -13 -42 -33 -59
-27 -110 -36 -99 -18 3 5 28 14 56 21 27 7 50 16 50 21 0 11 -3 11 -37 -2 -15
-6 -47 -14 -70 -18 -39 -8 -44 -6 -71 23 -16 17 -58 71 -92 119 -63 89 -116
149 -147 165 -32 17 -89 -32 -177 -152 -91 -123 -135 -163 -220 -202 -48 -22
-170 -48 -194 -42 -4 1 -23 -6 -42 -17 -28 -15 -59 -20 -155 -21 -66 -2 -127
-5 -135 -8 -15 -5 -139 -28 -250 -46 -30 -5 -70 -13 -87 -19 -30 -9 -38 -6
-92 35 -33 24 -73 61 -90 82 -17 20 -43 51 -59 67 -15 17 -63 100 -107 185
-79 151 -145 240 -180 240 -27 0 -82 -91 -146 -240 -86 -201 -117 -260 -151
-292 -41 -38 -67 -35 -125 11 -26 22 -78 64 -114 94 l-67 54 -61 -10 c-45 -7
-84 -6 -139 2 -98 16 -104 16 -182 3 -56 -10 -76 -9 -140 7 l-76 19 -108 -28
c-161 -43 -191 -38 -320 48 -116 77 -162 93 -198 65 -13 -9 -68 -63 -124 -119
-55 -56 -109 -104 -120 -105 -10 -2 -59 14 -109 35 -57 25 -110 41 -145 43
l-55 4 -62 -63 c-33 -35 -74 -77 -90 -94 -27 -30 -32 -31 -140 -38 -123 -8
-146 -2 -193 49 -41 44 -103 83 -120 75 -8 -4 -36 -14 -62 -22 l-46 -15 -79
50 c-43 27 -79 53 -81 58 -2 5 -10 9 -17 9 -8 0 -50 33 -93 74 -91 84 -126
106 -176 106 -31 0 -38 -5 -69 -57 -19 -32 -71 -131 -115 -221 -142 -289 -150
-292 -302 -110 -72 88 -119 128 -149 128 -5 0 -36 -24 -68 -54 -50 -46 -67
-56 -119 -66 -78 -15 -109 -7 -223 64 -50 31 -111 60 -136 66 -49 11 -49 11
-131 -87 -22 -26 -128 -56 -195 -54 -30 0 -76 14 -135 40 -109 48 -186 70
-192 53 -2 -7 -8 -12 -14 -12 -6 0 -37 -18 -69 -40 -53 -36 -65 -40 -122 -40
l-63 0 -124 -131 c-148 -155 -180 -174 -274 -167 -61 5 -125 29 -200 76 -17
10 -61 58 -98 108 -38 49 -95 115 -126 147 l-58 58 -52 -11 c-31 -7 -82 -31
-127 -61 -80 -52 -99 -58 -109 -34 -3 8 -12 15 -19 15 -8 0 -49 38 -92 86 -81
88 -133 124 -184 124 -38 0 -68 -47 -168 -262 -102 -218 -95 -209 -151 -202
-83 10 -194 60 -242 109 -59 60 -95 59 -270 -8 -50 -18 -83 -24 -140 -23 -75
1 -75 1 -138 52 -99 80 -101 81 -165 51 -30 -14 -89 -50 -130 -81 -41 -31 -84
-58 -95 -61 -11 -2 -30 -9 -42 -15 -27 -15 -110 -40 -131 -40 -10 0 -31 21
-48 48 -17 26 -42 60 -56 75 -37 41 -80 30 -157 -41 l-60 -56 -41 12 c-23 6
-118 13 -212 15 -142 3 -181 7 -238 26 -38 12 -100 28 -139 36 -80 15 -72 18
-242 -93 -108 -71 -130 -71 -260 8 -135 82 -154 87 -208 59 -24 -12 -61 -34
-83 -49 -28 -19 -58 -29 -102 -33 -59 -6 -65 -9 -115 -61 -48 -49 -58 -55
-109 -61 -109 -13 -175 -1 -294 55 -60 28 -117 55 -125 59 -8 4 -67 4 -131 -2
-167 -14 -188 -9 -299 72 -51 38 -114 80 -140 93 -44 23 -49 23 -114 11 -139
-25 -207 -91 -288 -279 -76 -176 -238 -610 -238 -636 0 -25 13 -16 17 12 10
65 264 708 287 725 7 6 16 20 20 32 10 30 80 91 129 112 51 22 125 33 133 20
3 -5 9 -7 14 -4 14 9 75 -26 190 -108 l104 -75 86 6 c191 15 225 11 346 -45
170 -79 161 -77 260 -63 49 6 92 14 97 17 24 15 -84 -139 -136 -194 -17 -18
-27 -33 -23 -33 22 0 50 29 119 128 75 107 92 122 144 122 12 0 23 4 25 8 2 5
25 23 52 41 l48 33 63 -17 c35 -9 72 -23 82 -31 10 -7 27 -14 37 -14 11 0 70
-27 132 -59 61 -33 115 -57 118 -54 7 7 -250 146 -274 148 -26 3 -130 38 -130
45 0 3 24 21 54 39 76 46 109 46 187 3 35 -19 96 -52 136 -73 l72 -38 43 21
c24 11 82 46 129 78 100 67 140 76 225 55 56 -15 142 -40 174 -52 8 -3 81 -5
161 -3 98 1 149 -2 154 -9 3 -6 10 -9 16 -6 5 3 25 3 45 -1 l35 -7 -32 -33
c-18 -19 -37 -34 -42 -34 -5 0 -20 -9 -33 -19 -14 -11 -48 -27 -75 -36 -49
-17 -50 -17 -82 8 -18 14 -53 32 -77 40 l-45 15 -33 -31 c-18 -17 -47 -53 -65
-79 -41 -62 -74 -71 -240 -72 -104 -1 -124 -3 -110 -13 9 -7 44 -14 77 -15 66
-1 66 -1 145 13 30 5 58 8 62 7 5 -2 -7 -27 -26 -56 -21 -30 -30 -52 -23 -52
7 0 31 28 53 62 37 58 44 63 95 76 30 7 90 24 134 38 l78 24 37 -28 c85 -65
122 -73 176 -38 21 14 24 14 19 1 -11 -29 5 -14 55 50 105 133 162 122 247
-46 19 -38 34 -72 34 -77 0 -10 -120 -68 -133 -64 -5 1 -14 -2 -21 -7 -6 -5
-47 -19 -91 -30 -172 -44 -179 -50 -293 -224 -107 -164 -124 -183 -178 -193
-30 -6 -73 41 -141 151 -31 50 -75 118 -99 151 l-43 61 22 22 c18 16 44 23
126 31 56 6 111 8 121 5 10 -3 21 -2 24 3 3 5 40 13 82 17 118 11 216 43 248
83 30 34 21 45 -9 12 -10 -11 -24 -20 -32 -20 -7 0 -13 -4 -13 -9 0 -12 -20
-19 -104 -36 -95 -19 -232 -34 -339 -39 -48 -2 -91 -6 -94 -10 -4 -3 -18 -6
-33 -6 -14 0 -31 -5 -37 -11 -19 -19 -82 2 -136 46 -29 23 -72 54 -96 69 l-43
28 -47 -18 c-25 -9 -83 -35 -128 -56 -83 -40 -116 -64 -71 -53 17 4 30 -1 47
-19 14 -14 21 -29 17 -33 -10 -10 -211 -8 -301 3 l-70 9 54 33 c68 42 60 53
-10 13 -61 -34 -133 -46 -199 -33 l-45 8 60 39 c56 37 73 42 134 44 35 1 19
12 -21 15 -36 2 -89 -20 -156 -66 -40 -28 -46 -29 -92 -19 -31 7 -58 7 -72 1
-19 -7 -16 -9 22 -10 25 -1 53 -5 64 -9 15 -6 10 -11 -30 -31 -27 -13 -57 -27
-68 -32 -29 -15 -109 -38 -131 -38 -17 0 -70 35 -125 82 -17 14 -82 39 -176
67 -33 10 -80 31 -103 46 -42 26 -43 26 -84 10 -23 -9 -60 -27 -82 -39 -27
-16 -46 -21 -60 -16 -16 7 -4 16 68 49 48 23 94 41 101 41 17 0 98 52 91 58
-6 6 -49 -11 -185 -75 -90 -43 -121 -53 -145 -48 -16 3 -46 8 -65 10 -19 2
-51 9 -70 14 -19 6 -57 11 -84 11 -46 0 -53 -3 -90 -44 -27 -29 -47 -64 -59
-102 -118 -390 -226 -788 -216 -794 8 -6 6 -13 -8 -27 -11 -11 -27 -49 -35
-84 -18 -72 -23 -229 -8 -229 6 0 10 11 10 23 0 41 187 742 189 710 1 -6 -15
-78 -35 -160 -38 -161 -144 -670 -143 -687 2 -25 21 51 63 244 93 427 109 500
152 669 24 96 50 181 57 190 8 9 17 24 20 34 10 27 42 20 71 -14 15 -17 58
-83 96 -148 101 -169 74 -146 255 -211 44 -15 88 -31 98 -35 9 -4 17 -3 17 2
0 5 -48 26 -107 47 -152 53 -169 67 -249 204 -87 147 -117 182 -155 182 -31 0
-39 19 -15 39 20 17 63 -22 130 -118 55 -79 107 -131 130 -131 20 0 94 84 164
185 89 128 84 124 123 123 19 -1 60 5 92 12 l58 13 42 -40 c91 -85 110 -95
190 -92 65 3 77 0 107 -23 19 -14 55 -36 79 -48 54 -27 65 -23 214 77 60 40
115 73 123 73 8 0 23 5 33 12 16 9 44 8 138 -6 133 -21 127 -21 207 -8 l59 9
72 -72 c68 -69 73 -72 111 -68 44 4 83 28 164 97 49 42 59 46 89 41 41 -8 51
-20 159 -189 90 -141 110 -166 147 -186 22 -12 28 -10 69 24 27 22 83 93 141
181 53 80 100 145 106 145 5 0 18 9 28 19 23 23 128 57 203 67 29 4 59 11 65
16 11 9 131 68 137 68 1 0 10 -16 20 -35 27 -49 41 -44 15 6 -30 59 -4 45 51
-28 26 -36 52 -60 62 -60 24 2 23 14 -2 27 -20 11 -90 97 -90 111 0 11 35 21
84 24 27 1 57 -6 89 -22 50 -25 53 -31 36 -66 -9 -20 -9 -20 11 2 20 23 22 23
58 8 20 -9 53 -18 74 -22 44 -7 67 12 185 160 157 195 163 195 346 17 48 -48
100 -91 115 -98 19 -8 23 -13 12 -17 -61 -20 -132 -39 -168 -44 -26 -4 -40 -9
-34 -15 6 -6 34 -3 72 7 34 9 64 14 66 12 2 -2 -17 -20 -41 -41 -25 -20 -45
-44 -45 -54 0 -11 15 -1 48 31 26 26 53 47 59 47 6 0 24 7 39 15 40 21 50 20
166 -20 115 -40 115 -40 255 7 74 24 101 29 138 24 43 -7 50 -13 141 -122 62
-74 109 -121 135 -135 l40 -20 50 52 50 53 -36 -80 c-42 -91 -61 -124 -75
-124 -6 0 -10 -6 -10 -13 0 -16 -44 -58 -90 -86 -19 -11 -30 -21 -24 -21 14 0
96 59 107 77 4 7 13 13 20 13 7 0 23 24 36 53 13 28 46 100 72 159 27 59 61
128 77 153 26 44 29 46 62 40 19 -4 40 -10 45 -14 6 -4 60 -4 120 0 l110 7 27
-31 c15 -18 30 -40 33 -49 4 -10 12 -18 18 -18 7 0 48 -32 92 -71 79 -69 132
-105 142 -95 3 2 -9 12 -26 20 -59 31 -271 222 -271 245 0 10 6 9 23 -3 12 -9
29 -19 37 -22 8 -3 51 -19 95 -36 46 -17 108 -32 146 -35 l66 -5 50 53 c42 45
74 83 150 179 2 2 26 -3 52 -13 27 -9 58 -17 70 -17 12 0 19 -5 16 -10 -3 -6
-14 -10 -24 -10 -13 0 -138 -144 -180 -208 -3 -5 -23 -12 -45 -15 -76 -12
-102 -42 -164 -187 -12 -26 -55 -82 -104 -134 -78 -82 -88 -88 -114 -82 -39 9
-63 41 -130 171 -31 60 -70 132 -86 158 -29 46 -79 84 -97 73 -14 -9 -80 -148
-106 -227 -18 -52 -38 -87 -68 -119 -32 -34 -28 -32 16 10 31 30 57 61 57 68
0 8 19 59 42 114 43 101 71 134 101 122 20 -7 68 -85 136 -221 54 -109 102
-173 130 -173 31 0 105 55 145 108 22 28 42 50 44 47 2 -2 -8 -41 -23 -87 -33
-104 -34 -108 -34 -111 0 -1 -11 -32 -26 -70 -28 -76 -28 -77 -16 -77 5 0 37
85 71 189 33 104 70 201 80 214 11 14 39 35 62 47 53 28 183 37 310 21 80 -9
92 -14 139 -51 28 -22 61 -40 72 -40 18 1 15 5 -15 20 -53 29 -58 43 -11 33
21 -4 60 -7 86 -6 47 1 48 1 31 -18 -26 -28 -1 -23 26 6 15 16 54 34 109 50
47 14 118 35 156 47 39 11 74 24 79 29 14 13 -1 11 -56 -5 -25 -8 -48 -12 -51
-9 -3 2 -16 -2 -29 -10 -22 -14 -120 -47 -141 -47 -5 0 8 21 28 48 57 70 128
142 141 142 7 0 15 7 18 15 3 9 45 35 93 58 126 60 186 62 315 11 87 -35 113
-54 72 -54 -23 0 -114 -41 -114 -52 0 -5 9 -4 21 2 11 7 47 20 80 31 83 27
121 19 209 -47 39 -30 74 -54 77 -54 12 0 -25 36 -78 75 l-57 42 62 14 c33 7
95 13 137 13 73 0 79 -2 140 -44 95 -65 151 -96 184 -102 37 -7 63 10 167 110
74 72 78 74 113 68 30 -6 36 -11 32 -27 -7 -25 17 -25 41 -1 10 10 61 37 113
59 96 43 154 52 229 39 l35 -7 -30 14 -30 13 67 17 c37 9 77 17 90 17 14 0 18
4 12 9 -5 6 -40 3 -94 -9 -47 -10 -99 -18 -116 -18 -17 1 -36 -2 -42 -6 -5 -3
-18 -3 -27 0 -13 5 -9 11 19 30 19 13 39 24 44 24 8 0 22 22 22 35 0 9 -40 -9
-40 -19 0 -6 -19 -24 -41 -39 -37 -27 -44 -28 -99 -22 -36 4 -66 3 -77 -4 -14
-8 -4 -10 45 -11 73 0 73 -7 -1 -50 -39 -22 -65 -30 -103 -30 -28 0 -54 3 -57
7 -4 3 3 18 15 32 l23 25 -38 -22 c-21 -12 -46 -22 -55 -22 -13 0 -14 -2 -4
-9 10 -6 -1 -24 -44 -70 -71 -77 -106 -102 -150 -108 -41 -6 -66 13 -95 70
-11 20 -22 37 -24 37 -3 0 4 -18 15 -40 11 -22 17 -40 13 -40 -7 0 -49 27
-173 110 -28 19 -84 15 -209 -14 -85 -20 -131 -13 -271 42 -63 25 -126 45
-140 45 -38 0 -146 -30 -190 -53 -22 -11 -41 -20 -44 -20 -3 0 15 37 39 83 48
90 56 94 126 77 58 -15 58 -15 173 4 l99 17 47 -46 47 -47 43 22 c46 23 49 40
3 18 -15 -8 -38 -12 -49 -10 -23 3 -85 62 -66 62 25 0 11 18 -18 22 -16 3 -30
1 -30 -3 0 -13 -133 -30 -195 -25 -96 7 -118 15 -111 40 5 19 4 19 -8 4 -9
-12 -25 -17 -50 -16 l-38 1 33 26 c18 14 45 34 61 45 27 18 28 18 21 0 -4 -11
11 0 33 23 32 33 48 42 89 48 l49 8 54 -59 c43 -46 47 -49 20 -14 -52 67 -53
72 -26 65 12 -3 61 -9 107 -14 l84 -9 61 42 c33 23 85 59 114 80 49 36 55 38
105 31 83 -11 177 -46 245 -93 l63 -43 52 19 c76 28 183 44 241 36 37 -5 75
-22 144 -66 51 -32 100 -62 110 -65 9 -3 24 -12 34 -20 11 -10 18 -11 23 -4 3
6 15 11 26 11 12 0 17 -4 13 -11 -3 -6 4 -4 17 5 13 8 67 31 119 49 90 33 101
35 210 33 138 -3 197 -20 336 -100 52 -30 111 -57 130 -61 30 -5 34 -8 23 -21
-10 -13 -39 -15 -156 -13 -79 1 -146 0 -149 -3 -7 -8 56 -19 68 -12 5 3 40 3
76 -1 65 -7 66 -8 35 -19 -34 -12 -53 -26 -35 -26 6 0 35 9 65 20 30 11 69 20
88 19 40 -1 153 31 171 49 15 15 9 15 -70 -2 -34 -8 -65 -10 -67 -6 -11 18 48
50 94 51 25 1 60 5 76 10 19 5 4 6 -39 2 l-70 -6 80 87 c43 48 89 93 101 101
28 19 63 19 88 1 29 -20 115 -132 108 -140 -3 -3 -17 -6 -30 -6 -13 0 -23 -5
-23 -11 0 -7 13 -9 38 -4 33 5 41 3 65 -24 27 -31 27 -31 5 -31 -21 -1 -21 -2
6 -17 43 -23 95 -19 161 11 82 37 165 57 269 63 50 3 98 10 106 14 25 15 -180
2 -238 -14 -28 -8 -50 -12 -47 -8 2 5 30 28 62 52 32 24 76 64 98 88 l40 43
91 5 c62 4 93 2 98 -6 4 -6 17 -11 29 -11 12 0 40 -12 60 -26 21 -14 41 -24
43 -21 3 2 -16 18 -41 33 -25 16 -45 33 -45 38 0 5 60 6 142 2 129 -7 151 -11
257 -48 64 -22 120 -43 124 -47 4 -4 -11 -14 -33 -21 -22 -7 -40 -17 -40 -21
0 -4 19 1 43 11 40 18 48 18 112 5 78 -17 116 -4 44 15 -24 6 -52 15 -62 21
-10 5 -22 7 -27 4 -5 -3 -39 6 -77 21 -197 75 -193 74 -454 75 l-239 0 21 30
c43 61 132 150 166 165 42 20 111 14 198 -17 62 -23 58 -23 354 -15 63 2 84
-2 155 -32 111 -46 167 -61 194 -51 13 5 20 13 17 19 -4 6 -3 9 2 8 4 -1 44 3
88 10 157 24 203 -15 339 -285 20 -40 34 -73 31 -73 -3 0 -17 7 -30 16 -14 9
-25 14 -25 10 0 -3 17 -17 38 -30 21 -13 56 -51 77 -83 33 -52 44 -61 83 -72
l45 -12 -23 -24 c-32 -34 -67 -32 -108 8 l-35 32 19 -33 c10 -18 29 -40 42
-48 30 -20 66 -7 113 42 18 19 42 34 53 34 12 0 50 14 84 30 35 17 67 30 72
30 4 0 40 33 80 74 l71 74 44 -17 c59 -23 62 -27 28 -48 -65 -40 -204 -148
-195 -151 6 -2 61 34 122 80 62 45 122 83 134 83 11 1 47 7 80 15 l59 14 28
-32 c16 -18 29 -29 29 -25 0 4 -10 17 -22 30 -13 14 -18 27 -12 31 19 17 124
42 148 36 16 -4 26 -2 26 5 0 25 43 8 129 -51 50 -33 91 -65 91 -70 0 -4 9 -8
20 -8 11 0 20 -4 20 -10 0 -23 267 5 294 30 5 5 15 6 24 3 10 -5 13 -2 8 6 -5
7 -15 9 -25 6 -62 -26 -254 -44 -266 -25 -4 6 -11 8 -16 5 -5 -4 -9 -3 -9 2 0
4 20 16 44 26 24 10 52 25 62 33 18 14 -50 -13 -107 -42 -25 -13 -31 -11 -80
23 -30 20 -68 47 -86 59 l-32 21 74 6 c119 9 128 27 10 21 l-100 -5 26 23
c155 135 195 158 274 158 76 0 77 -13 5 -85 -35 -36 -58 -65 -50 -65 8 0 42
30 76 67 l63 67 62 -12 c35 -6 69 -8 78 -3 9 5 38 12 64 15 26 4 65 13 85 20
33 12 41 11 76 -8 43 -23 130 -71 240 -131 l68 -37 -55 -29 -55 -28 -63 16
c-35 8 -84 17 -109 19 -25 2 -51 6 -57 9 -7 2 -13 0 -13 -5 0 -5 15 -10 33
-12 19 -2 31 -8 30 -15 -2 -9 6 -11 25 -7 21 4 38 -3 74 -30 47 -36 65 -45 53
-26 -11 18 49 38 105 34 30 -1 44 -1 30 2 -79 15 -79 14 -37 34 35 17 74 24
122 21 20 -2 20 -2 0 -17 -18 -13 -17 -14 12 -8 21 4 39 0 57 -11 15 -10 29
-15 32 -12 3 3 -6 13 -20 22 -14 10 -26 22 -26 27 0 5 21 18 46 30 26 11 42
23 36 27 -6 4 10 21 39 40 27 19 47 36 44 39 -2 2 -37 -20 -76 -49 -70 -52
-74 -53 -143 -55 -79 -2 -124 16 -259 104 -40 26 -76 47 -82 47 -5 1 -23 8
-39 16 l-28 16 33 12 c44 16 42 15 161 92 92 58 132 82 190 110 25 12 213 49
256 51 20 0 42 4 47 8 15 11 214 40 270 39 99 -1 247 -37 291 -71 7 -5 24 -4
40 2 16 6 84 10 159 9 l130 -2 100 43 c69 30 114 43 147 44 51 0 56 -4 238
-159 52 -45 102 -82 110 -82 8 0 40 -5 70 -11 65 -13 216 -19 226 -9 4 4 14 7
23 7 23 0 258 69 306 90 113 49 198 72 246 65 54 -8 153 -71 236 -151 31 -29
53 -42 63 -38 13 5 12 8 -3 17 -10 7 -56 42 -102 79 -107 85 -173 123 -205
120 -24 -3 -253 -75 -295 -93 -47 -20 -221 -69 -259 -73 -22 -2 -62 -7 -87
-11 -54 -9 -174 9 -206 31 -12 8 -28 14 -35 14 -7 0 -51 34 -98 76 -47 42
-109 94 -138 116 -53 39 -53 39 -104 28 -29 -6 -90 -26 -137 -44 -47 -19 -93
-34 -101 -35 -8 0 -27 -3 -42 -7 -15 -3 -44 -3 -65 1 l-37 7 60 24 c32 13 65
24 72 24 7 0 18 5 25 10 7 6 25 20 40 31 37 28 27 37 -11 10 -17 -12 -36 -21
-43 -21 -7 0 -20 -6 -28 -14 -9 -8 -50 -26 -91 -41 -63 -22 -84 -25 -130 -19
-30 4 -68 8 -85 9 -70 5 -118 27 -280 128 -11 6 -42 28 -69 47 l-49 34 39 18
c67 30 115 24 238 -33 61 -27 120 -54 131 -59 26 -11 262 -50 301 -50 21 0 51
19 114 71 141 118 204 136 275 81 15 -12 25 -22 23 -22 -3 0 -28 4 -56 10 -40
7 -57 6 -84 -7 -52 -25 -128 -74 -128 -83 0 -5 31 11 70 34 67 41 72 43 140
40 38 -1 70 1 70 5 0 12 -30 35 -77 61 l-42 23 -53 -26 c-51 -25 -46 -20 95
117 152 147 212 189 259 179 35 -7 61 -36 163 -187 110 -163 127 -186 138
-186 5 0 21 -9 35 -20 l26 -21 -40 2 c-22 2 -79 -11 -132 -28 l-92 -31 -48 23
c-79 38 -202 84 -202 76 0 -11 49 -54 106 -94 46 -32 55 -34 93 -27 38 7 51 3
144 -44 114 -57 135 -61 295 -60 l112 0 48 46 c37 36 57 47 92 52 71 10 173
49 193 73 10 13 24 23 31 23 18 0 196 -169 196 -186 0 -15 25 -19 34 -6 3 5
-42 58 -101 118 -58 60 -95 93 -83 74 l24 -35 -27 24 c-15 14 -27 27 -27 31 0
8 160 214 196 253 22 23 23 28 9 33 -9 4 -17 5 -18 3 -1 -2 -9 -16 -17 -31 -8
-15 -51 -72 -94 -127 l-79 -100 -32 25 c-40 30 -43 30 -91 -3 -21 -14 -80 -43
-130 -64 -87 -37 -94 -38 -195 -36 -75 2 -113 8 -137 20 -58 31 -138 119 -216
240 -79 121 -146 197 -175 197 -9 -1 -33 -7 -53 -14z m-4047 -198 c16 -18 68
-109 116 -201 77 -152 92 -175 158 -238 39 -38 86 -80 104 -93 18 -13 28 -27
23 -30 -18 -11 -137 -24 -152 -16 -8 4 -20 6 -25 4 -6 -3 -40 14 -75 36 -36
22 -90 52 -120 67 -30 14 -63 30 -74 35 -12 6 -16 6 -12 -1 4 -5 31 -21 62
-35 30 -14 68 -35 84 -46 15 -11 55 -35 87 -53 l59 -33 97 16 c84 14 100 14
124 1 l27 -14 -75 -38 c-108 -56 -131 -62 -176 -50 -35 10 -57 28 -202 164
l-34 32 20 -30 c24 -34 120 -128 175 -169 48 -36 80 -30 212 36 79 40 104 48
117 40 12 -8 25 -8 46 0 24 9 40 7 89 -12 32 -12 87 -26 122 -31 62 -9 62 -9
115 28 28 21 75 56 104 79 46 38 56 42 91 37 29 -4 66 4 137 27 78 26 107 31
149 27 122 -14 348 -14 387 0 37 12 42 12 94 -18 30 -17 55 -27 55 -22 0 4
-21 19 -46 33 l-46 24 63 24 c35 13 69 28 74 33 6 6 -22 -1 -61 -15 -85 -31
-100 -32 -139 -8 -23 14 -48 18 -110 16 -132 -4 -208 -12 -239 -24 -16 -6 -50
-13 -75 -16 l-46 -5 74 35 c40 20 76 36 80 36 3 1 42 49 86 108 120 160 151
192 189 192 37 0 63 -24 151 -145 32 -44 74 -98 92 -119 18 -21 30 -43 26 -49
-3 -6 -1 -7 5 -3 6 3 13 2 16 -3 12 -19 103 2 193 44 81 38 225 76 239 63 7
-7 -96 -139 -114 -145 -8 -4 -23 -14 -33 -24 -9 -9 -47 -32 -84 -50 -55 -27
-81 -34 -139 -35 -46 -1 -81 3 -99 13 -16 8 -31 12 -34 9 -3 -2 13 -14 36 -25
36 -19 48 -20 108 -11 37 5 69 8 70 6 6 -6 -77 -56 -144 -87 -57 -26 -73 -30
-95 -21 -16 6 -28 6 -28 1 0 -5 5 -9 12 -9 29 0 -12 -19 -73 -34 -74 -18 -185
-21 -194 -5 -11 16 66 77 106 84 22 4 53 0 83 -10 26 -9 50 -14 53 -11 7 7
-39 25 -103 41 l-51 13 -62 -55 -61 -55 -79 9 -79 9 -70 -56 c-38 -30 -91 -73
-117 -95 -45 -38 -50 -39 -124 -41 -72 -1 -79 1 -138 38 -34 22 -83 46 -109
54 l-46 14 -47 -39 c-26 -22 -62 -46 -81 -55 -21 -10 -26 -15 -12 -12 15 3 20
0 15 -7 -18 -31 -139 -159 -162 -172 -66 -37 -172 -87 -176 -84 -2 3 26 44 61
92 45 60 74 89 92 94 15 3 37 13 49 21 16 9 34 12 58 8 33 -7 35 -6 24 12 -18
28 -112 18 -145 -15 -71 -71 -272 -126 -328 -90 -13 9 -49 66 -82 129 -31 62
-77 144 -101 183 -37 60 -48 71 -85 82 -24 7 -65 13 -93 13 l-50 1 40 35 c52
46 109 76 131 67 12 -4 15 -3 10 5 -9 15 -51 15 -79 1 -12 -7 -48 -36 -79 -66
l-58 -54 -81 3 -81 4 -116 117 c-63 64 -122 117 -131 117 -9 1 -27 8 -41 16
-24 14 -22 15 30 9 30 -4 62 -12 70 -19 8 -7 44 -37 80 -68 118 -101 171 -113
213 -50 37 57 79 142 137 282 97 233 128 266 191 198z m2710 -139 c30 -15 38
-23 30 -33 -29 -34 -251 -102 -251 -77 0 18 101 120 123 124 44 9 59 7 98 -14z
m-6236 -58 c42 -26 179 -152 183 -168 2 -7 11 -13 20 -13 9 0 47 -19 84 -41
79 -48 78 -52 -14 -93 -35 -16 -71 -32 -80 -37 -17 -9 -216 -41 -268 -44 -34
-1 -106 -35 -180 -84 -81 -54 -98 -63 -139 -72 -67 -15 -86 -3 -192 117 l-100
114 -52 0 -51 0 34 35 c61 63 77 55 238 -133 38 -44 64 -65 92 -73 37 -11 41
-10 60 12 12 13 62 107 112 209 99 201 144 277 168 284 33 9 56 5 85 -13z
m6418 -78 c4 -7 14 -13 22 -13 8 0 40 -16 72 -35 l58 -35 -50 6 c-27 4 -57 10
-65 15 -9 4 -34 3 -55 -1 -22 -5 -87 -16 -145 -25 -58 -9 -165 -27 -239 -41
-73 -14 -135 -24 -136 -22 -2 2 21 35 50 73 58 74 74 82 176 84 24 1 64 16
114 45 l78 44 56 -41 c31 -23 60 -48 64 -54z m-4575 -15 c54 -34 104 -67 112
-75 13 -10 35 -8 125 13 125 30 191 37 255 28 39 -5 42 -7 22 -15 -12 -5 -41
-11 -65 -14 -127 -15 -207 -26 -250 -35 -27 -6 -53 -8 -58 -4 -5 3 -22 -6 -37
-20 -15 -13 -56 -47 -92 -75 -138 -108 -187 -125 -252 -91 -41 21 -178 121
-178 130 0 3 49 55 108 117 143 147 144 147 310 41z m6242 17 c67 -25 147 -45
182 -45 l31 0 -24 -26 c-13 -14 -40 -33 -59 -42 -48 -23 -183 -22 -275 2 -68
17 -185 72 -185 86 0 8 126 48 165 52 44 4 114 -7 165 -27z m-5595 -91 c77
-21 83 -21 183 1 l83 18 67 -34 c49 -24 89 -56 149 -118 45 -47 80 -87 79 -89
-7 -6 -141 29 -161 42 -11 7 -42 16 -70 20 -27 4 -90 14 -140 22 -109 18 -146
22 -295 32 l-115 7 -145 -72 c-186 -92 -219 -106 -310 -133 -127 -38 -162 -34
-344 34 -78 29 -52 32 -268 -30 -48 -14 -92 -22 -98 -19 -6 4 -17 2 -24 -4
-19 -16 -196 -35 -257 -27 -42 5 -78 21 -155 67 -140 85 -157 88 -221 50 -29
-16 -80 -52 -115 -79 -126 -98 -135 -98 -299 13 -45 31 -74 57 -67 60 25 9
221 35 226 30 3 -3 12 1 21 9 9 7 49 30 89 51 l74 39 46 -25 c26 -13 54 -30
63 -37 9 -7 20 -12 25 -10 5 1 40 -2 77 -6 58 -6 75 -13 105 -40 21 -18 52
-40 71 -49 33 -17 35 -16 70 9 20 15 47 40 61 55 22 26 36 31 110 40 47 6 101
15 120 19 19 5 67 13 105 19 39 5 95 15 125 22 l56 12 95 -65 c53 -36 112 -71
132 -77 46 -15 78 0 215 104 54 41 104 75 109 75 5 0 24 7 41 15 16 9 81 20
144 26 62 6 138 17 168 24 72 18 103 17 175 -1z m-5961 -104 c61 -60 114 -110
118 -110 19 0 16 -20 -6 -32 -13 -7 -72 -39 -131 -72 -58 -32 -128 -66 -156
-76 -61 -23 -179 -50 -214 -50 l-25 0 38 78 c22 42 56 115 77 161 52 116 102
199 123 204 53 14 64 7 176 -103z m4754 62 c45 -19 82 -39 82 -43 0 -12 -62
-26 -190 -44 -63 -9 -140 -20 -169 -25 -30 -5 -57 -8 -58 -6 -10 9 102 124
140 143 52 28 81 24 195 -25z m-2398 -82 c52 -32 100 -64 106 -69 12 -10 121
1 160 16 16 6 16 4 -3 -23 -48 -65 -93 -106 -111 -99 -9 3 -41 8 -70 9 -42 3
-63 11 -95 35 -23 18 -60 45 -82 62 -22 16 -47 36 -56 43 -11 9 -32 12 -65 8
l-47 -5 33 41 c55 69 96 66 230 -18z m-632 -22 c154 -67 160 -69 231 -54 36 8
75 18 85 22 19 7 19 7 0 -25 -41 -69 -120 -166 -147 -179 -42 -21 -79 -7 -196
72 -58 40 -119 75 -136 79 -45 9 -106 37 -101 46 3 4 23 20 45 36 70 48 115
49 219 3z m-1278 10 c10 -7 49 -50 87 -96 144 -179 160 -194 231 -226 49 -22
88 -31 147 -35 70 -5 77 -8 58 -18 -29 -17 -140 -43 -185 -43 -70 0 -136 21
-229 74 -51 30 -103 63 -115 75 -12 11 -27 21 -34 21 -12 0 -216 136 -225 150
-6 10 97 83 148 106 34 15 86 11 117 -8z m5528 7 c365 -52 404 -63 252 -67
-190 -5 -212 -3 -308 24 -54 16 -117 27 -142 26 -40 -1 -50 -7 -103 -61 -32
-32 -76 -83 -99 -113 -40 -53 -66 -69 -105 -62 -11 2 -31 -2 -44 -8 -164 -79
-271 -125 -276 -120 -4 3 -14 -1 -23 -9 -10 -9 -33 -18 -51 -21 -32 -6 -37 -2
-81 54 -61 79 -110 116 -140 107 -13 -4 -71 -57 -130 -117 -106 -108 -107
-109 -145 -103 -38 6 -264 115 -294 141 -8 8 -20 14 -26 14 -6 0 -49 20 -96
46 -49 26 -108 49 -139 53 -52 9 -53 8 -109 -35 -31 -24 -81 -71 -112 -106
-55 -62 -56 -63 -106 -62 -53 2 -88 18 -236 110 -68 43 -85 49 -112 44 -18 -4
-61 -11 -95 -14 l-63 -8 64 59 c130 118 136 119 253 41 51 -35 109 -71 129
-81 35 -18 36 -18 75 4 21 13 73 48 114 79 93 70 95 71 138 81 44 10 70 -1
200 -79 l97 -58 120 8 c174 11 189 14 313 52 146 46 196 46 316 -2 116 -45
158 -45 302 2 61 20 117 36 124 36 7 0 21 6 29 14 27 24 253 136 262 130 5 -3
17 0 26 5 26 15 98 13 221 -4z m2007 -13 l39 -7 -82 -62 c-102 -77 -136 -84
-242 -50 l-75 24 85 43 c47 24 99 47 115 51 39 9 110 10 160 1z m-5790 -30
c23 -6 106 -64 126 -88 12 -15 6 -16 -69 -13 -45 2 -83 2 -84 -1 -2 -3 -23
-18 -48 -34 -25 -16 -84 -57 -131 -92 -48 -35 -89 -64 -92 -64 -3 0 -27 -14
-53 -32 -95 -64 -193 -108 -240 -108 -42 0 -49 5 -130 80 -46 44 -101 91 -121
103 -36 23 -37 23 -88 6 -56 -18 -138 -58 -197 -95 -21 -13 -42 -24 -47 -24
-5 0 -45 -24 -88 -54 -156 -107 -224 -127 -286 -84 -18 12 -63 47 -102 78
-122 98 -107 93 -284 86 -106 -4 -179 -12 -227 -25 l-72 -20 -68 28 -69 28
-30 -20 c-16 -11 -51 -38 -77 -59 -43 -36 -106 -57 -183 -62 -11 -1 -45 -13
-75 -27 -30 -14 -80 -36 -112 -49 l-56 -23 -49 28 c-26 16 -90 69 -141 118
-52 49 -108 95 -125 102 -18 8 -25 14 -16 15 10 0 63 23 119 52 151 76 209 73
280 -12 48 -57 91 -86 140 -94 32 -6 37 -4 59 33 23 37 26 39 90 45 37 4 88
13 113 21 26 7 48 12 50 9 4 -4 67 27 204 102 45 24 88 44 96 44 9 0 19 7 22
16 9 24 30 15 155 -72 62 -43 118 -82 125 -86 6 -3 46 -27 88 -53 42 -25 108
-60 145 -77 63 -28 74 -30 148 -25 44 3 107 15 139 26 33 12 67 21 78 21 10 0
18 4 18 8 0 4 15 16 33 26 17 11 80 54 138 97 58 44 109 79 111 79 3 0 25 18
49 41 74 69 80 71 126 55 77 -27 156 -67 217 -110 76 -54 111 -72 157 -79 32
-5 41 -1 70 29 18 19 60 73 94 121 47 68 67 89 90 94 17 4 37 4 45 2 8 -3 24
-8 35 -11z m579 -7 c22 -9 62 -46 105 -97 39 -45 69 -83 68 -85 -2 -1 -32 12
-68 29 -35 17 -72 35 -82 40 -11 5 -25 3 -40 -7 -18 -11 -41 -13 -109 -8 l-87
6 57 68 c62 76 84 84 156 54z m-1364 -23 c0 -11 -76 -72 -89 -72 -5 0 -14 -6
-18 -14 -12 -22 -246 -195 -265 -196 -13 -1 250 258 274 271 35 18 98 25 98
11z m-2700 -106 l55 -41 -73 -7 c-85 -9 -80 -4 -208 -180 -98 -135 -112 -148
-157 -139 -26 6 -43 23 -94 99 -35 51 -63 96 -63 100 0 8 139 48 154 44 5 -2
18 6 30 16 38 34 184 132 216 146 44 18 77 10 140 -38z m3690 -9 c70 -39 86
-41 119 -18 30 22 74 26 143 15 l37 -6 -82 -61 c-86 -64 -132 -86 -182 -87
-54 0 -182 29 -218 50 l-35 21 -35 -41 c-19 -22 -71 -67 -117 -99 -73 -53 -85
-58 -112 -50 -16 4 -37 4 -46 0 -10 -4 -53 -21 -97 -37 -113 -41 -186 -39
-258 6 -171 109 -191 112 -262 40 -37 -38 -54 -49 -70 -44 -18 6 -19 5 -3 -7
16 -13 13 -20 -46 -94 -94 -118 -106 -128 -174 -133 -47 -3 -71 2 -137 28 -44
17 -87 38 -96 46 -9 8 -21 14 -26 12 -19 -6 -109 66 -159 126 -35 43 -62 65
-89 74 -37 12 -40 12 -61 -15 -13 -15 -23 -34 -24 -42 0 -7 9 -2 20 12 11 14
29 29 40 32 27 8 72 -17 104 -60 l28 -37 -38 20 c-22 10 -55 22 -75 25 -35 5
-39 2 -78 -45 -43 -54 -51 -56 -26 -8 9 17 12 30 7 30 -5 0 -17 -18 -27 -40
-10 -22 -21 -40 -25 -40 -13 0 -143 56 -194 84 -27 14 -54 26 -60 26 -14 -1
55 -59 70 -60 6 0 39 -12 75 -26 35 -15 74 -30 87 -35 l23 -9 -42 -79 c-50
-94 -109 -166 -144 -175 -36 -9 -68 15 -138 104 -33 41 -79 96 -104 123 l-44
47 -74 -15 c-40 -9 -95 -25 -122 -37 -56 -25 -151 -27 -204 -3 l-34 14 67 1
67 0 82 78 c82 78 103 89 174 96 22 2 51 8 65 14 68 26 90 25 135 -7 24 -17
46 -27 49 -23 3 5 -11 21 -31 35 l-36 26 42 11 c24 6 61 13 84 15 23 2 69 8
102 14 82 15 172 14 220 -3 21 -8 81 -47 133 -87 129 -102 151 -112 205 -93
38 12 40 12 22 -1 -11 -9 -38 -21 -60 -27 -38 -12 -39 -12 -12 -16 21 -2 54
11 120 51 151 90 169 97 244 98 l68 1 -60 14 c-58 13 -62 12 -110 -12 l-50
-25 30 26 c17 14 41 28 55 32 14 3 27 9 30 13 9 12 127 80 183 105 93 43 126
32 245 -78 37 -35 81 -73 98 -85 l32 -22 63 21 c35 12 101 43 145 70 45 27 84
49 87 49 3 0 57 39 119 86 121 92 163 118 178 109 5 -3 12 0 16 6 13 21 153 4
204 -24z m-3167 0 c36 -16 77 -56 44 -44 -57 21 -67 19 -189 -42 -100 -50
-128 -61 -152 -55 -31 6 -131 72 -123 81 2 2 29 0 60 -5 34 -5 62 -5 73 1 33
18 209 77 232 77 12 0 37 -6 55 -13z m-1139 -80 c22 -31 37 -59 34 -63 -3 -3
-41 -5 -83 -5 -68 0 -95 5 -164 27 -18 6 49 76 92 97 45 22 75 8 121 -56z
m6068 -11 c45 -26 90 -50 98 -55 8 -5 81 -41 163 -82 99 -49 144 -76 137 -83
-15 -15 -70 8 -180 73 -104 62 -150 75 -315 87 -84 6 -95 4 -174 -25 -47 -17
-89 -31 -95 -31 -20 0 139 151 169 160 55 17 109 5 197 -44z m-5331 -6 c28
-22 58 -44 66 -49 13 -7 7 -17 -34 -57 -27 -27 -59 -62 -70 -78 l-20 -30 -43
37 c-24 20 -59 42 -78 48 -35 12 -37 11 -69 -27 -18 -21 -49 -69 -69 -107 -21
-37 -40 -66 -43 -64 -3 1 -24 11 -46 22 -22 11 -42 21 -44 22 -3 2 9 18 26 36
17 17 54 66 84 107 115 163 135 179 227 179 58 1 66 -2 113 -39z m6609 -8 c0
-4 -8 -12 -18 -18 -10 -7 -62 -49 -116 -94 -74 -64 -107 -85 -139 -91 -38 -7
-45 -5 -74 23 -18 17 -30 34 -28 38 3 4 22 11 42 15 21 3 63 18 93 32 30 15
91 43 135 64 80 38 105 46 105 31z m-7479 -52 c11 0 18 -3 18 -7 -1 -5 -42
-46 -90 -92 -74 -71 -95 -85 -126 -88 -38 -3 -84 19 -116 55 -17 18 -15 20 41
41 33 11 63 21 68 21 5 0 31 23 58 49 l49 49 40 -14 c22 -8 48 -14 58 -14z
m229 -71 c23 -40 58 -88 76 -109 l33 -37 -37 -11 c-20 -6 -39 -8 -43 -4 -4 4
-43 55 -88 114 l-81 107 38 4 c20 2 42 4 48 5 7 1 31 -30 54 -69z m9625 61 c3
-5 14 -10 24 -10 22 0 65 -45 57 -58 -3 -6 -21 -14 -39 -17 -17 -4 -37 -11
-43 -16 -8 -6 -33 -2 -70 12 l-58 22 42 38 c40 38 74 49 87 29z m-9123 -95
c72 -49 71 -71 -9 -156 -55 -59 -86 -67 -149 -40 l-46 21 32 57 c44 79 78 123
104 133 30 12 27 13 68 -15z m2701 13 c12 -6 56 -34 97 -61 41 -27 86 -53 100
-58 25 -8 -46 -4 -135 7 -79 10 -215 37 -215 43 1 14 37 51 65 65 36 19 59 20
88 4z m6050 -52 c-4 -7 -30 -43 -58 -80 -43 -56 -55 -66 -81 -66 -17 0 -37 7
-44 15 -7 8 -18 15 -25 15 -13 0 -61 67 -53 75 2 2 17 -2 33 -11 19 -10 32
-11 39 -4 5 5 19 10 31 10 11 0 49 14 85 29 76 34 84 36 73 17z m-5450 -6 c35
-1 39 -17 17 -61 -66 -129 -124 -187 -174 -174 -21 6 -21 6 -1 -6 11 -7 22
-13 23 -15 5 -4 -167 -197 -184 -207 -25 -14 -134 -18 -177 -6 -23 6 -71 34
-107 63 -51 42 -82 58 -147 77 -46 13 -83 26 -83 29 0 15 136 184 152 188 10
2 18 8 18 12 0 22 63 32 152 25 51 -5 107 -9 124 -9 22 -1 49 -18 102 -66 66
-59 133 -109 92 -68 -8 8 -50 45 -93 82 -43 36 -72 68 -65 70 7 3 45 7 83 10
100 9 176 27 204 48 14 10 31 16 39 13 7 -3 19 -5 25 -5z m-2343 -19 c0 -14
-105 -101 -122 -101 -8 0 -20 -6 -26 -12 -15 -15 -134 -14 -172 1 l-25 9 25
10 c14 5 54 21 89 36 36 14 72 26 80 26 9 1 41 9 71 20 62 22 80 24 80 11z
m880 -46 c19 -13 48 -35 65 -48 l30 -25 -48 -7 c-55 -8 -217 1 -229 13 -10 10
38 68 72 86 31 17 65 11 110 -19z m-3575 -100 l64 -50 -42 -6 c-23 -4 -95 -12
-159 -18 l-118 -12 -25 28 c-13 15 -25 31 -25 34 0 3 35 22 78 42 107 50 143
47 227 -18z m-1957 15 c39 -11 81 -20 92 -20 12 0 18 -4 15 -10 -3 -5 -16 -10
-29 -10 -12 0 -27 -5 -33 -11 -6 -6 -55 -12 -112 -13 -87 -2 -105 -5 -131 -24
-17 -13 -30 -18 -30 -12 0 5 5 10 10 10 6 0 10 9 10 21 0 12 15 36 34 55 41
41 69 43 174 14z m266 -75 c24 -10 34 -20 29 -28 -35 -58 -178 -249 -195 -261
-51 -36 -68 -23 -187 144 -25 34 -56 67 -69 74 l-24 13 32 23 c36 26 47 25
161 -20 l55 -21 70 45 c38 25 74 46 80 46 6 0 28 -7 48 -15z m975 -31 c2 -2 2
-5 0 -7 -2 -1 -53 -35 -113 -76 -135 -92 -173 -100 -250 -51 -27 18 -45 35
-40 39 11 10 85 31 110 32 11 0 44 18 74 39 l55 39 80 -5 c44 -3 82 -8 84 -10z
m822 6 c18 -10 15 -15 -33 -56 -29 -25 -72 -57 -95 -70 -59 -36 -106 -22 -167
48 -25 29 -42 56 -38 60 4 4 45 10 91 12 46 3 86 7 89 10 10 10 133 6 153 -4z
m4059 -77 c0 -4 -12 -20 -27 -35 -15 -15 -22 -28 -16 -28 6 0 25 17 41 37 l30
38 71 -23 c39 -13 73 -27 76 -32 4 -6 14 -10 23 -10 10 0 33 -14 52 -30 l35
-31 -35 8 c-45 10 -208 10 -285 1 -54 -7 -58 -6 -41 7 23 18 21 18 -22 6 -37
-11 -40 -4 -12 27 11 12 20 26 20 31 0 6 12 17 28 25 29 16 62 21 62 9z"/>
<path d="M16975 4234 c-66 -8 -135 -26 -135 -35 0 -6 8 -8 18 -5 57 18 126 25
139 14 20 -16 8 -23 -82 -47 -99 -27 -109 -30 -103 -36 3 -3 35 4 72 16 37 11
86 24 109 28 26 4 41 12 39 20 -4 20 47 -15 134 -91 43 -38 91 -77 107 -86 15
-9 27 -20 27 -24 0 -13 90 -9 165 8 39 8 90 19 115 24 25 5 79 16 120 25 59
13 83 14 113 5 20 -6 37 -13 37 -16 0 -3 -18 -26 -40 -52 -22 -25 -38 -48 -35
-51 3 -3 26 19 52 48 37 42 50 51 69 47 12 -3 26 -2 29 4 3 5 0 7 -8 4 -8 -3
-18 -1 -21 5 -4 7 10 13 36 17 31 5 37 9 23 14 -16 6 -14 8 15 18 18 7 42 12
54 12 20 -1 19 -2 -4 -15 -38 -22 -15 -18 27 5 46 24 136 26 237 5 65 -14 146
-55 146 -74 0 -4 -19 -16 -42 -25 -66 -27 -31 -29 47 -2 94 32 95 52 4 76 -37
9 -84 28 -105 40 -21 13 -34 18 -30 11 6 -9 -1 -11 -31 -5 -21 3 -42 9 -48 12
-5 3 -30 5 -55 4 l-45 -1 32 14 c32 14 68 14 108 0 11 -4 5 3 -14 15 l-34 22
-81 -30 c-91 -33 -207 -62 -248 -62 -31 0 -46 -17 -21 -23 17 -4 17 -4 0 -12
-10 -4 -31 -1 -50 8 -37 17 -110 32 -88 18 17 -11 0 -17 -74 -26 -27 -4 -86
-16 -130 -28 -81 -20 -170 -27 -214 -14 -12 3 -44 23 -69 44 -71 58 -147 125
-150 134 -2 4 11 10 28 14 17 4 29 9 27 12 -3 2 -20 0 -39 -5 -33 -9 -78 2
-78 20 0 4 -6 7 -12 7 -7 -1 -26 -4 -43 -5z"/>
<path d="M16085 4180 c-16 -4 -24 -8 -16 -9 7 0 -6 -19 -30 -41 -40 -35 -49
-39 -99 -40 -39 0 -51 -3 -40 -10 8 -5 30 -10 49 -10 29 0 32 -2 21 -15 -7 -9
-10 -19 -6 -23 4 -4 13 0 20 10 10 13 32 16 134 16 84 0 126 -4 135 -12 6 -7
27 -30 45 -50 18 -21 36 -36 39 -33 3 4 -11 25 -32 49 l-36 43 53 6 53 6 -56
1 c-52 2 -59 5 -106 51 -44 43 -85 73 -95 70 -2 -1 -16 -5 -33 -9z"/>
<path d="M12180 4065 c-74 -19 -175 -61 -163 -68 6 -4 28 1 50 9 l40 16 71
-46 c68 -45 73 -46 115 -36 24 5 56 14 71 19 23 9 33 5 90 -39 88 -66 136 -72
276 -36 56 14 106 24 111 20 6 -3 15 -1 22 4 7 6 32 15 57 21 57 15 102 32 96
38 -2 2 -36 -5 -75 -17 -38 -12 -75 -19 -80 -16 -6 4 -18 2 -28 -4 -20 -11
-153 -44 -219 -55 -26 -4 -44 -2 -49 4 -3 6 -15 11 -27 11 -11 0 -59 31 -107
69 -98 77 -165 121 -183 120 -7 0 -38 -7 -68 -14z m148 -47 c23 -16 42 -33 42
-37 0 -13 -72 -30 -113 -27 -39 3 -142 65 -129 78 16 15 79 26 117 21 22 -3
59 -19 83 -35z"/>
<path d="M18148 4035 c-33 -46 -42 -52 -53 -35 -4 6 -11 8 -16 4 -5 -3 0 -13
11 -22 20 -17 20 -18 -45 -167 -80 -179 -107 -227 -139 -245 -37 -20 -66 -6
-158 72 -118 101 -129 106 -174 82 -20 -10 -63 -42 -97 -69 -129 -105 -152
-109 -219 -37 -24 26 -53 61 -64 77 -10 17 -21 32 -24 35 -3 3 -18 22 -34 43
-15 21 -48 58 -71 83 l-44 45 -44 -12 c-28 -7 -81 -37 -137 -79 -118 -86 -153
-95 -310 -82 -63 5 -146 5 -185 1 -38 -4 -94 -8 -124 -8 -30 -1 -52 -3 -49 -7
3 -3 48 -4 99 -3 52 0 176 0 276 -1 117 -1 187 2 195 9 62 51 171 127 205 142
69 32 88 18 213 -146 38 -49 88 -109 112 -132 41 -40 46 -42 78 -33 24 7 31 7
23 -1 -6 -6 -27 -14 -46 -19 -29 -6 -47 -3 -87 16 -32 15 -50 19 -48 11 3 -6
31 -22 63 -35 57 -23 58 -23 92 -5 19 10 65 46 104 79 92 81 119 93 156 66 15
-11 44 -50 63 -86 19 -36 38 -66 43 -66 9 0 -25 68 -66 133 -27 42 -34 47 -66
47 -27 0 -32 3 -21 10 8 5 31 10 51 10 30 0 49 -12 124 -76 91 -78 119 -94
160 -94 31 0 86 91 170 283 32 75 63 137 68 137 4 0 25 -8 45 -18 31 -15 42
-16 72 -5 63 21 63 21 130 -119 35 -73 71 -155 81 -183 18 -52 39 -71 39 -36
0 12 -4 21 -10 21 -5 0 -10 5 -10 11 0 6 -34 80 -75 166 -41 85 -74 158 -72
161 2 7 -14 27 -61 81 -19 22 -19 19 4 -17 31 -49 25 -63 -27 -65 -50 -1 -109
12 -109 25 0 5 13 30 30 54 39 58 19 57 -22 -1z"/>
<path d="M16959 3992 c-24 -16 -79 -54 -123 -85 -43 -32 -89 -57 -101 -57 -13
0 -27 -4 -30 -10 -9 -15 -89 -12 -159 6 -69 18 -128 47 -168 83 -40 35 -42 22
-4 -19 42 -47 169 -89 278 -92 l76 -2 79 52 c43 29 99 68 125 86 65 47 124 54
220 27 86 -23 144 -47 153 -61 3 -5 14 -10 23 -10 10 0 50 -25 91 -56 80 -61
142 -93 181 -94 18 0 45 19 93 68 37 37 67 73 67 80 0 7 -25 -14 -56 -47 -38
-41 -69 -65 -94 -72 -47 -14 -68 -4 -197 91 -48 36 -108 71 -133 78 -128 38
-218 61 -246 61 -17 1 -50 -11 -75 -27z"/>
<path d="M8931 3979 c-14 -5 -44 -25 -67 -44 -39 -32 -46 -34 -91 -29 -26 4
-56 11 -65 15 -9 5 -19 5 -22 1 -6 -10 59 -32 93 -32 11 0 21 -5 21 -11 0 -6
7 -9 15 -5 9 3 46 -2 83 -10 65 -16 97 -20 154 -23 22 -1 32 -10 48 -41 11
-22 23 -40 25 -40 3 0 -4 19 -16 41 l-21 42 87 -8 c63 -5 85 -4 81 4 -4 6 -28
11 -54 11 -104 0 -119 7 -164 76 -44 67 -57 73 -107 53z"/>
<path d="M13050 3965 c-7 -8 -1 -10 20 -7 40 6 92 -30 129 -88 16 -25 57 -99
91 -165 67 -128 106 -189 137 -218 37 -33 107 5 210 115 32 34 69 72 82 85 13
13 19 23 12 23 -6 0 -51 -40 -99 -89 -48 -48 -102 -98 -121 -109 -31 -19 -37
-19 -62 -6 -40 20 -66 59 -154 224 -42 80 -88 159 -101 177 -13 17 -24 36 -24
41 0 15 -109 31 -120 17z"/>
<path d="M15121 3904 c-25 -28 -38 -35 -64 -33 -18 1 -43 1 -57 0 -23 -2 -23
-3 -5 -11 11 -4 32 -5 48 -3 15 3 27 1 27 -4 0 -24 -125 -163 -146 -163 -7 0
-14 -6 -17 -12 -3 -10 -40 -13 -138 -14 -150 -1 -246 -11 -256 -27 -4 -6 4 -8
23 -3 16 3 94 8 174 11 231 9 220 6 287 83 32 37 67 79 78 94 18 24 28 28 90
31 51 2 81 10 108 26 44 27 43 40 -1 17 -16 -8 -32 -12 -35 -9 -4 3 -13 0 -21
-6 -8 -7 -34 -11 -57 -9 l-42 3 27 33 c38 44 16 41 -23 -4z"/>
<path d="M11860 3786 c-25 -7 -75 -25 -112 -39 -37 -15 -74 -24 -82 -21 -8 3
-17 1 -21 -5 -3 -6 -24 -11 -45 -11 -21 0 -41 -4 -44 -8 -6 -10 102 -7 129 3
11 5 54 22 95 38 51 21 93 31 131 31 63 1 89 -13 199 -106 36 -30 84 -67 107
-81 40 -26 43 -26 80 -11 78 32 232 113 223 119 -5 3 -57 -20 -115 -50 -132
-69 -154 -69 -248 6 -203 162 -203 162 -297 135z"/>
<path d="M4618 3658 c-13 -13 -32 -21 -42 -19 -17 2 -18 1 -8 -12 11 -12 10
-17 0 -23 -22 -14 -48 -4 -84 34 -43 45 -29 12 18 -42 l35 -40 32 23 32 23 74
-36 c41 -20 77 -36 82 -36 4 0 14 -4 22 -9 12 -8 8 -17 -20 -53 -52 -64 -82
-109 -76 -114 2 -3 19 17 36 43 53 82 86 117 102 107 7 -4 20 -9 29 -10 8 0
42 -6 74 -13 33 -6 88 -11 122 -11 35 0 65 -4 69 -10 3 -5 18 -9 33 -8 15 1
72 -1 127 -4 l100 -7 -105 14 c-58 7 -109 14 -115 14 -5 1 26 34 70 75 44 41
77 77 72 82 -4 4 -33 -17 -65 -48 -63 -62 -120 -93 -155 -85 -12 3 -53 17 -90
31 -70 27 -167 35 -167 15 0 -16 -40 -4 -127 36 -40 19 -73 40 -73 47 0 8 7
24 16 36 20 28 10 28 -18 0z"/>
<path d="M17004 3651 c-5 -4 -31 -16 -59 -26 -27 -9 -82 -35 -121 -56 -39 -22
-81 -39 -92 -39 -12 0 -23 -4 -27 -9 -6 -11 -37 -16 -196 -35 -65 -8 -147 -27
-219 -51 -114 -38 -116 -39 -295 -41 -99 -1 -205 2 -235 7 -30 5 -98 13 -150
18 l-95 9 -110 -74 c-155 -104 -179 -106 -285 -28 -34 25 -64 43 -67 41 -6 -6
88 -77 140 -106 l38 -21 57 28 c31 16 87 49 124 75 104 71 142 78 293 51 50
-9 161 -18 248 -20 157 -4 159 -4 279 32 167 49 203 56 412 84 70 10 102 20
155 50 103 58 181 88 223 84 20 -2 61 -15 90 -30 46 -23 50 -24 35 -6 -10 11
-39 28 -65 37 -26 10 -52 22 -58 26 -6 5 -15 5 -20 0z"/>
<path d="M9942 3445 c-27 -25 -55 -45 -61 -45 -6 0 -11 -4 -11 -10 0 -5 -20
-36 -43 -67 -24 -32 -70 -96 -103 -142 -68 -96 -96 -121 -134 -121 -39 0 -69
27 -159 143 -43 56 -88 111 -100 121 -11 11 -21 24 -21 30 0 6 -73 35 -163 65
-89 29 -168 56 -175 58 -7 3 -10 -1 -7 -9 3 -8 45 -25 93 -38 214 -59 232 -70
362 -235 75 -94 150 -165 176 -165 23 0 98 80 170 184 48 68 121 155 166 199
86 82 94 107 10 32z"/>
<path d="M17720 3488 c0 -4 4 -18 10 -32 l10 -26 -42 21 c-81 41 -135 21 -214
-78 -90 -113 -147 -173 -164 -173 -10 0 -20 -5 -22 -12 -3 -8 -32 -14 -79 -16
-68 -4 -97 0 -214 26 -22 5 -76 27 -120 49 -45 23 -99 46 -122 52 -38 10 -45
9 -101 -23 -33 -19 -99 -64 -147 -100 -47 -36 -91 -66 -96 -66 -5 0 -20 -9
-32 -21 -12 -11 -64 -46 -115 -76 -146 -88 -193 -82 -368 43 -41 30 -78 54
-82 54 -4 0 -38 28 -77 62 -99 87 -142 116 -188 129 -37 10 -41 8 -69 -18 -16
-15 -67 -84 -113 -153 -108 -162 -113 -167 -156 -175 -39 -7 -42 -5 -202 132
l-84 73 -99 -3 c-81 -3 -108 -8 -149 -28 -60 -29 -52 -20 -171 -199 -115 -173
-130 -190 -164 -190 -29 0 -59 28 -108 101 l-31 46 67 18 c80 22 94 34 244
208 60 70 113 127 117 127 10 0 123 111 119 116 -3 2 -28 -16 -56 -40 -28 -24
-55 -46 -59 -48 -5 -1 -64 -67 -132 -146 -67 -79 -142 -155 -164 -169 -39 -25
-135 -59 -141 -51 -2 1 -26 39 -54 83 -62 98 -95 129 -128 121 -37 -10 -88
-60 -180 -177 -62 -80 -91 -109 -107 -109 -31 0 -114 58 -189 132 -87 87 -118
127 -169 218 -24 44 -48 80 -52 80 -8 0 14 -42 89 -178 29 -52 178 -193 249
-236 l64 -39 -77 -59 c-105 -82 -146 -101 -191 -93 -55 10 -63 18 -147 122
-134 168 -152 186 -224 211 -40 15 -99 26 -151 29 -85 6 -86 5 -142 -31 -31
-19 -82 -56 -112 -81 -118 -95 -149 -98 -265 -19 -46 32 -102 63 -125 70 l-42
12 -50 -51 c-28 -29 -77 -88 -110 -132 -109 -144 -139 -157 -210 -92 -37 34
-165 193 -198 246 -6 9 -39 44 -75 78 l-65 62 50 45 c28 25 57 48 65 51 17 7
156 275 142 275 -4 0 -32 -47 -60 -104 -35 -70 -71 -124 -109 -166 -86 -92
-82 -92 -169 -16 -42 37 -80 64 -85 60 -5 -3 7 -18 28 -34 21 -15 55 -46 76
-67 l38 -40 -33 -20 c-47 -27 -67 -35 -118 -43 -51 -9 -77 -1 -199 59 -54 26
-92 39 -104 35 -13 -4 -17 -2 -13 5 4 6 16 11 27 11 10 0 19 5 19 10 0 16 136
78 187 86 26 4 40 10 33 14 -17 11 -76 -5 -154 -40 -37 -16 -74 -30 -82 -30
-8 0 -14 -5 -14 -11 0 -5 -21 -19 -47 -31 -42 -18 -60 -20 -163 -15 -97 4
-127 10 -191 35 -104 42 -191 64 -203 52 -6 -6 -18 -10 -28 -10 -30 0 -126
-40 -176 -73 -26 -18 -72 -40 -102 -49 -37 -12 -85 -41 -149 -92 -105 -83
-143 -96 -227 -75 -38 9 -59 23 -94 61 -56 60 -100 73 -118 34 -14 -32 -16
-32 -166 -2 -247 50 -309 57 -371 41 -31 -8 -58 -15 -60 -15 -3 0 -5 -4 -5 -9
0 -4 -16 -36 -36 -69 -42 -70 -28 -76 -116 48 -25 36 -62 80 -81 99 -32 31
-40 33 -81 29 -25 -3 -64 -15 -88 -28 -59 -30 -184 -130 -196 -156 -12 -24
-84 -37 -210 -38 l-72 -1 -103 102 c-110 109 -130 123 -175 123 -27 0 -33 -7
-71 -83 -23 -45 -41 -87 -41 -92 0 -6 -4 -16 -9 -24 -7 -11 -21 -2 -63 42 -44
46 -60 57 -86 57 -18 0 -32 -4 -32 -9 0 -6 -13 -29 -29 -53 -16 -24 -59 -116
-96 -205 l-67 -162 -39 24 c-21 14 -41 21 -44 16 -3 -5 3 -12 12 -15 10 -4 29
-14 41 -24 l24 -19 -37 -74 c-74 -147 -174 -201 -279 -149 -77 37 -118 114
-217 405 -24 71 -64 170 -89 220 -39 78 -49 90 -73 93 -16 2 -39 -4 -53 -13
-13 -8 -24 -14 -24 -13 0 2 4 19 10 38 9 32 8 33 -6 15 -8 -11 -19 -35 -24
-55 -10 -33 -95 -159 -244 -359 -49 -67 -71 -89 -77 -79 -9 13 -12 5 -10 -23
2 -20 -88 -131 -125 -156 -42 -27 -78 -21 -136 26 -90 72 -125 93 -162 96 -29
3 -39 -1 -55 -23 -26 -38 -78 -143 -151 -309 -69 -158 -110 -223 -140 -223
-31 0 -64 44 -135 179 -37 69 -83 151 -103 183 -33 51 -41 57 -85 66 -35 7
-71 6 -130 -5 -108 -19 -144 -11 -257 52 -52 30 -102 57 -111 60 -13 5 -11 11
14 38 17 18 45 55 63 84 36 55 46 61 115 67 50 4 58 7 154 51 102 46 200 107
231 144 l27 32 131 -1 c132 -1 142 0 228 20 l48 12 59 -52 c53 -46 63 -51 93
-45 42 8 128 46 128 57 0 11 -1 11 -62 -17 -69 -32 -103 -26 -153 25 l-38 39
39 6 c22 3 50 8 64 10 181 34 250 45 277 45 17 0 34 4 37 9 3 5 17 11 31 13
22 5 32 -4 77 -66 70 -97 103 -126 142 -126 27 0 35 7 57 48 15 26 47 103 72
172 56 157 62 178 49 165 -6 -5 -27 -57 -47 -114 -79 -226 -111 -273 -165
-243 -25 14 -127 138 -132 162 -2 8 28 23 77 40 94 33 74 40 -27 9 l-69 -21
-28 26 c-35 33 -52 34 -21 1 13 -14 21 -27 18 -31 -10 -9 -127 -34 -258 -54
-69 -11 -143 -24 -165 -31 -39 -11 -40 -11 -72 27 -17 21 -35 35 -39 31 -4 -4
5 -21 21 -37 16 -16 27 -31 24 -33 -23 -20 -265 -42 -329 -30 l-44 8 84 88
c79 81 87 86 119 82 21 -2 47 -17 67 -36 19 -18 37 -30 40 -26 10 9 -23 45
-68 73 l-37 24 -42 -23 c-23 -12 -74 -58 -112 -102 -39 -44 -73 -81 -76 -82
-3 -1 -60 -7 -126 -12 -130 -12 -238 -42 -267 -76 -9 -11 -36 -50 -60 -87
l-43 -67 -50 -1 c-27 0 -63 7 -79 15 -15 8 -34 15 -41 15 -7 0 -59 48 -116
108 -151 155 -162 164 -212 161 -42 -2 -107 8 -107 18 0 2 18 35 40 72 40 67
42 68 88 74 26 3 86 0 134 -7 85 -12 158 -10 158 3 0 3 -24 5 -52 3 -29 -2
-93 3 -143 11 -57 9 -96 11 -107 5 -22 -11 -23 1 -2 30 27 40 8 35 -22 -5 -29
-38 -58 -87 -91 -151 -11 -21 -27 -35 -44 -39 -39 -8 -106 -72 -114 -110 -10
-48 -33 -43 -161 30 -102 59 -117 64 -187 70 -49 4 -77 3 -77 -3 0 -6 17 -10
38 -10 73 -1 153 -28 230 -78 43 -28 91 -53 109 -57 24 -5 30 -10 26 -23 -18
-47 -244 -432 -254 -432 -4 0 -24 -22 -45 -50 -21 -27 -41 -50 -45 -50 -8 0
-62 280 -55 287 2 3 9 -4 15 -14 12 -23 89 -78 97 -70 3 3 -4 8 -15 12 -11 3
-40 28 -64 55 -42 47 -45 53 -67 172 -21 116 -39 177 -40 137 0 -9 9 -61 20
-114 11 -54 19 -100 17 -102 -2 -2 -25 24 -52 57 -26 33 -50 60 -52 60 -7 0 8
-22 54 -77 59 -73 58 -71 87 -233 36 -203 36 -191 0 -223 -29 -25 -92 -57
-112 -57 -28 0 -76 63 -111 145 -66 154 -66 153 -41 314 11 79 19 145 16 148
-3 3 -7 -5 -10 -18 -19 -91 -26 -131 -32 -184 -7 -68 -3 -74 -64 89 -22 60
-38 111 -36 114 5 5 -48 52 -58 52 -4 0 1 -12 11 -26 17 -27 17 -27 -7 -19
-14 4 -33 14 -43 23 -27 24 -28 10 -1 -21 19 -22 31 -28 48 -23 27 7 39 -16
103 -193 29 -81 33 -102 27 -147 -6 -51 -7 -52 -31 -43 -34 13 -70 11 -101 -5
-35 -18 -77 -123 -176 -446 -77 -249 -118 -366 -136 -384 -6 -6 -20 0 -41 20
-39 36 -166 226 -214 319 -20 39 -40 75 -45 80 -4 6 -22 47 -40 92 l-33 81 32
92 c18 51 30 94 27 97 -2 2 -17 -34 -32 -81 -16 -47 -31 -83 -35 -78 -8 7
-109 264 -109 275 0 4 -23 45 -51 92 -41 69 -56 85 -75 85 -13 0 -24 3 -24 8
1 13 25 37 51 50 35 18 66 2 139 -73 30 -31 76 -74 101 -96 47 -39 47 -39 100
-29 67 13 181 65 211 97 19 21 12 19 -52 -15 -91 -49 -146 -64 -198 -56 -32 5
-59 24 -140 99 -91 83 -127 105 -172 105 -3 0 -22 -21 -40 -47 -19 -27 -54
-66 -78 -87 -58 -52 -177 -193 -225 -267 -22 -33 -42 -57 -47 -54 -4 3 -35 44
-69 92 -33 49 -76 105 -94 125 -30 34 -37 37 -64 29 -42 -12 -73 -30 -73 -42
0 -5 14 -2 31 6 44 23 83 11 123 -38 43 -54 136 -194 136 -204 0 -15 -120
-207 -148 -235 -41 -44 -77 -38 -132 21 -26 27 -62 72 -81 100 -34 50 -91 91
-126 91 -18 0 -65 -81 -115 -200 -14 -33 -16 -34 -65 -31 -91 4 -123 -12 -189
-97 -84 -109 -235 -334 -229 -340 6 -7 0 -15 85 113 117 175 178 254 219 281
39 26 126 42 148 27 20 -14 -123 -394 -155 -413 -15 -8 -15 -9 1 -10 23 0 77
114 138 289 l42 123 46 -7 c66 -10 76 -9 176 9 94 17 136 14 155 -9 9 -11 3
-25 -28 -67 -22 -29 -74 -108 -116 -175 -42 -67 -89 -132 -104 -144 -22 -17
-23 -20 -8 -18 19 4 67 70 200 277 36 56 73 106 83 109 22 9 51 -27 142 -179
101 -166 132 -207 156 -207 l20 0 -20 9 c-11 4 -47 52 -80 105 -33 53 -88 139
-122 192 -48 73 -60 100 -52 110 14 16 73 33 115 33 41 0 116 -27 127 -45 4
-8 14 -15 20 -15 15 0 52 -60 136 -225 34 -66 74 -131 88 -145 l26 -25 -25 35
c-14 19 -53 89 -88 155 -109 208 -123 227 -177 250 -32 13 -71 20 -115 20 -63
0 -81 6 -59 19 5 3 35 50 66 104 31 53 59 99 60 101 2 2 16 -6 31 -18 36 -28
44 -18 9 11 l-27 24 22 39 c12 22 34 54 49 71 14 17 52 64 83 105 31 41 73 90
93 109 l36 35 -44 -95 c-56 -120 -122 -248 -144 -279 -14 -19 -15 -23 -3 -19
25 8 63 74 141 242 41 87 79 161 86 163 32 12 74 -23 109 -92 38 -73 154 -357
154 -376 0 -6 -14 -59 -31 -118 -78 -270 -150 -466 -172 -474 -7 -2 -6 -3 2
-3 29 2 86 149 161 409 52 180 46 174 86 83 19 -44 34 -85 34 -92 0 -7 4 -14
8 -16 5 -1 32 -43 62 -93 117 -196 196 -295 234 -295 19 0 28 15 58 98 20 53
66 194 102 314 36 119 79 252 96 295 32 82 78 143 110 143 32 0 70 -22 70 -41
0 -59 -93 -638 -119 -739 -17 -70 -12 -99 8 -37 16 49 55 276 92 527 18 124
36 229 40 234 11 12 83 -68 110 -121 11 -24 25 -43 30 -43 12 0 52 -87 130
-285 85 -214 149 -345 168 -345 10 0 12 3 5 8 -19 12 -77 136 -152 322 -38 96
-82 201 -96 234 -14 32 -26 59 -26 61 0 1 16 2 35 3 35 1 71 19 112 56 13 10
24 18 26 15 2 -2 12 -42 22 -89 25 -122 64 -222 84 -218 41 8 80 120 167 483
94 394 87 376 156 442 65 64 123 103 151 103 26 0 77 -31 77 -47 0 -7 6 -13
14 -13 19 0 52 -46 131 -184 38 -65 83 -138 101 -161 18 -24 30 -46 27 -49 -4
-3 -25 -6 -47 -6 -56 0 -133 -39 -182 -91 -35 -37 -47 -64 -82 -174 -23 -71
-60 -197 -82 -280 -50 -186 -107 -363 -126 -392 -9 -14 -10 -23 -4 -23 19 0
50 89 126 355 90 317 131 440 150 455 8 7 14 18 14 24 0 17 57 74 94 94 24 13
56 17 136 17 97 -1 110 -3 155 -29 191 -110 178 -105 247 -95 145 21 203 22
220 5 9 -9 21 -16 26 -16 13 0 56 -69 137 -220 71 -133 83 -150 129 -182 l28
-21 24 29 c31 37 89 150 148 289 88 208 131 266 187 252 13 -4 58 -34 99 -67
41 -33 92 -65 112 -70 35 -10 40 -8 74 22 20 18 56 57 79 85 l43 53 30 -63
c34 -71 65 -107 92 -107 35 0 81 128 165 460 43 168 46 175 87 200 31 19 32
19 59 -1 30 -21 70 -109 150 -334 71 -198 119 -307 143 -328 73 -62 171 -75
241 -32 22 14 47 27 55 31 8 3 33 44 55 90 22 47 44 88 48 91 4 2 19 -3 33
-12 45 -29 104 -45 144 -39 36 6 40 10 79 93 22 47 55 126 74 175 l33 89 47
-62 c26 -34 47 -66 47 -71 0 -6 5 -10 11 -10 6 0 48 -34 92 -76 94 -87 147
-121 196 -126 31 -3 39 2 80 54 25 31 74 106 109 166 34 61 70 120 80 131 l17
21 34 -27 c18 -14 69 -80 113 -147 88 -134 119 -171 161 -193 28 -14 30 -13
63 24 19 21 63 95 97 165 34 70 64 127 67 128 7 0 70 -98 70 -109 0 -5 6 -11
13 -14 7 -3 48 -57 90 -121 96 -144 138 -191 184 -207 33 -11 38 -10 55 12 31
40 68 117 130 274 33 82 71 176 85 207 l26 58 41 -7 c91 -14 120 -27 154 -73
68 -92 84 -111 107 -126 14 -9 33 -13 44 -9 30 9 88 70 168 175 95 124 109
140 125 140 21 0 68 -53 142 -161 79 -116 138 -173 164 -160 9 5 33 15 52 24
19 8 77 54 129 101 52 47 98 86 102 86 4 0 19 11 33 24 14 13 65 51 113 85 86
62 89 63 138 56 28 -3 93 -26 145 -49 52 -24 107 -46 121 -50 28 -6 112 22
168 57 l34 20 35 -39 c19 -21 53 -59 76 -84 24 -25 64 -74 91 -110 87 -116
127 -160 172 -191 l44 -31 39 26 c21 14 58 51 82 82 132 173 158 201 188 208
35 6 81 -13 158 -68 26 -19 66 -43 90 -54 l42 -20 73 48 c39 27 98 69 130 94
32 25 75 50 95 56 82 22 213 4 272 -38 14 -10 33 -21 42 -25 9 -3 59 -59 111
-124 52 -65 111 -133 132 -151 35 -31 39 -32 79 -21 59 16 91 34 177 101 65
50 87 61 148 74 40 8 95 24 124 35 63 24 122 38 201 48 l58 7 40 -62 c21 -35
55 -77 74 -94 30 -26 38 -29 52 -19 53 40 91 86 155 189 86 138 157 212 224
231 55 16 160 16 176 0 6 -6 18 -11 27 -11 9 0 58 -38 110 -85 53 -47 114 -92
138 -101 l43 -17 36 34 c19 19 69 86 110 149 41 63 87 127 101 142 32 35 80
45 118 25 31 -16 207 -164 212 -178 2 -5 9 -9 15 -9 7 0 51 -27 99 -59 48 -32
111 -68 141 -80 l54 -22 54 20 c30 11 96 48 147 81 51 33 100 60 108 60 8 0
14 4 14 9 0 11 174 143 222 168 61 33 116 24 240 -37 112 -55 157 -65 288 -64
132 2 128 0 210 93 161 183 182 201 222 203 26 1 52 -8 84 -28 42 -26 54 -42
103 -141 72 -142 91 -164 134 -152 18 5 33 9 34 9 1 0 21 -33 44 -72 69 -122
127 -211 161 -250 l33 -38 50 24 c76 35 257 192 233 201 -8 3 -45 -26 -88 -68
-94 -92 -151 -130 -185 -121 -34 8 -75 62 -160 212 l-73 126 47 56 c26 30 68
81 95 112 26 32 63 65 83 74 32 16 40 16 110 1 42 -9 95 -26 118 -37 50 -24
55 -24 55 -5 0 8 -8 15 -17 15 -10 0 -52 11 -93 24 -41 13 -100 26 -130 29
l-55 5 -57 -66 c-31 -37 -80 -96 -109 -131 l-52 -64 -18 24 c-10 13 -24 35
-31 50 -7 14 -49 58 -93 98 -44 40 -90 91 -102 114 -12 23 -22 39 -23 35z
m-7063 -359 c105 -41 111 -42 218 -39 l110 2 -93 -66 c-51 -36 -96 -66 -98
-66 -3 0 -52 -43 -107 -96 -183 -173 -207 -171 -342 21 -35 50 -79 107 -99
127 -20 20 -36 39 -36 41 0 10 100 68 156 92 92 38 160 34 291 -16z m-1982
-39 c3 -5 15 -10 25 -10 21 0 69 -53 140 -155 l49 -72 -62 -124 c-93 -184
-123 -217 -173 -184 -12 7 -67 80 -123 162 -126 184 -122 180 -146 185 -17 3
-11 13 40 62 67 66 145 120 196 134 45 13 47 14 54 2z m-698 -116 l116 -117
71 7 c39 3 95 9 125 13 50 5 53 5 42 -13 -140 -240 -197 -324 -221 -324 -9 0
-21 -5 -27 -11 -22 -22 -104 31 -211 136 -110 107 -172 182 -172 209 0 28 62
165 86 191 43 47 65 36 191 -91z m6115 64 c50 -63 90 -129 83 -136 -3 -3 -36
-8 -73 -10 -37 -2 -71 -8 -77 -12 -21 -16 -194 -70 -226 -70 l-33 0 30 33 c17
17 60 71 96 118 105 135 142 150 200 77z m-3934 -5 c-7 -17 -146 -191 -192
-240 -40 -44 -55 -53 -82 -53 -30 0 -40 8 -82 61 -59 77 -61 82 -26 75 16 -3
49 -8 74 -11 49 -7 35 -15 242 138 49 35 74 46 66 30z m-923 -38 c31 -8 69
-15 85 -15 24 0 115 -16 196 -35 20 -4 16 -17 -71 -233 -94 -236 -124 -295
-155 -312 -28 -15 -36 -13 -76 22 -33 29 -192 260 -207 301 -3 9 -10 17 -15
17 -5 0 -26 25 -47 56 l-39 56 25 45 c29 55 82 110 112 117 33 7 129 -3 192
-19z m-4986 -15 c8 0 75 -61 149 -136 91 -93 142 -137 160 -140 15 -2 51 -7
79 -10 l53 -7 -18 -30 c-9 -16 -36 -51 -59 -77 -73 -82 -100 -60 -265 216 -76
127 -99 158 -125 169 -37 16 -44 30 -10 21 12 -3 28 -6 36 -6z m3375 -41 c25
-28 46 -59 46 -68 0 -22 -70 -202 -105 -272 -46 -90 -83 -106 -160 -70 -83 39
-82 29 -16 188 123 294 148 318 235 222z m-1165 -141 c-75 -288 -111 -389
-143 -401 -19 -7 -47 31 -81 107 l-24 55 46 63 c25 35 53 70 63 78 9 8 52 68
95 133 43 64 79 117 81 117 1 0 -15 -69 -37 -152z m-1296 110 c-9 -10 -20 -18
-24 -18 -4 0 -20 -11 -34 -24 -34 -32 -201 -116 -251 -126 -21 -5 -57 -13 -79
-19 -22 -5 -41 -8 -44 -5 -8 8 72 115 108 143 20 15 53 34 74 40 42 14 148 27
219 27 45 0 47 -1 31 -18z m-1308 -330 c-21 -84 -48 -196 -62 -248 -13 -52
-28 -114 -33 -136 -13 -60 -49 -165 -66 -191 -8 -13 -20 -20 -29 -17 -19 8
-57 136 -79 271 -4 27 1 37 44 77 48 44 124 162 211 323 24 45 45 80 47 78 2
-1 -13 -72 -33 -157z m-2517 -385 c11 -10 50 -56 87 -103 l68 -85 -49 -7 c-84
-13 -243 -20 -258 -11 -12 7 -8 23 25 98 52 117 84 144 127 108z"/>
<path d="M12915 3390 c-27 -27 -52 -50 -55 -50 -3 0 -64 -58 -136 -128 -132
-132 -181 -166 -285 -196 -28 -9 -64 -13 -82 -9 -90 17 -121 58 -213 286 -25
61 -51 117 -56 122 -16 16 -1 -28 57 -160 99 -227 94 -219 153 -243 67 -28
102 -28 188 1 79 26 90 34 239 178 61 59 144 139 185 178 41 39 70 71 65 71
-6 0 -33 -22 -60 -50z"/>
<path d="M4525 3425 c-5 -2 -35 -11 -65 -20 -55 -17 -173 -87 -199 -118 -22
-28 -4 -20 63 27 152 106 218 114 309 36 22 -19 22 -27 -6 -64 -13 -17 -27
-38 -31 -46 -10 -19 34 28 54 59 l15 22 82 -75 c45 -42 106 -89 137 -106 67
-35 75 -23 11 14 -25 15 -45 31 -45 36 0 6 -7 10 -16 10 -8 0 -53 36 -98 79
-67 64 -185 154 -198 150 -2 0 -7 -2 -13 -4z"/>
<path d="M6586 3331 c-3 -5 3 -11 15 -14 20 -5 20 -6 3 -38 -29 -57 -65 -172
-49 -159 7 6 24 40 35 76 32 95 75 106 97 24 3 -14 12 -34 19 -45 7 -11 31
-66 54 -123 22 -57 52 -127 66 -155 25 -51 80 -117 96 -117 4 0 29 -15 55 -34
61 -43 193 -109 193 -97 0 6 -39 30 -87 55 -49 25 -101 56 -116 68 l-28 23 35
65 c20 36 35 76 35 90 0 18 -10 4 -33 -46 -18 -39 -38 -74 -44 -78 -16 -10
-36 26 -108 190 -66 151 -81 177 -94 169 -4 -3 -10 2 -13 10 -4 9 -1 12 10 8
14 -5 14 -3 0 23 -40 75 -122 136 -141 105z"/>
<path d="M2738 3128 c-32 -41 -66 -108 -112 -221 -44 -107 -103 -226 -123
-248 -37 -43 -79 9 -164 202 -29 65 -57 119 -61 119 -5 0 -2 -15 6 -32 76
-178 115 -255 149 -294 l40 -45 29 28 c36 34 58 76 138 264 98 227 130 262
187 202 29 -32 153 -219 153 -232 0 -5 -6 -11 -13 -14 -8 -3 -33 -29 -57 -59
l-44 -53 62 58 c34 32 75 62 91 68 18 7 28 16 25 24 -4 8 9 20 33 32 35 17 36
18 13 21 -17 3 -32 -5 -52 -27 -15 -17 -32 -31 -38 -31 -5 0 -43 52 -84 115
-66 100 -117 155 -147 155 -4 0 -18 -15 -31 -32z"/>
<path d="M3332 3098 c-11 -35 -23 -78 -27 -96 -7 -34 -63 -95 -80 -88 -5 2
-28 12 -50 21 -46 20 -42 11 7 -13 24 -12 32 -23 30 -37 -3 -16 -1 -17 9 -8
17 16 49 -2 49 -27 0 -11 5 -20 10 -20 6 0 10 5 10 12 0 6 7 4 18 -5 10 -10
23 -17 28 -17 5 0 -3 10 -19 23 -27 22 -27 23 -15 72 12 47 16 50 62 67 28 9
52 15 55 12 4 -3 12 -22 18 -42 l13 -37 -5 43 c-5 39 -4 42 19 42 14 0 28 5
31 10 4 6 -8 10 -28 10 -32 0 -35 3 -46 43 -10 44 -45 97 -61 97 -5 0 -18 -28
-28 -62z"/>
<path d="M978 2819 c-10 -5 -18 -17 -18 -25 0 -8 -11 -50 -25 -92 -31 -96
-117 -451 -113 -464 2 -6 12 25 22 68 38 160 126 455 143 479 10 13 23 25 30
25 22 0 60 -63 122 -199 86 -191 118 -241 154 -241 34 0 89 28 137 68 53 46
31 47 -29 2 -106 -80 -130 -68 -213 108 -33 70 -71 150 -84 178 -42 90 -82
119 -126 93z"/>
</g>
</svg>
