<svg class="main-svg" xmlns="http://www.w3.org/2000/svg" xmlns:xlink="http://www.w3.org/1999/xlink" width="700" height="500" style="" viewBox="0 0 700 500"><rect x="0" y="0" width="700" height="500" style="fill: rgb(255, 255, 255); fill-opacity: 1;"/><defs id="defs-4faf7d"><g class="clips"><clipPath id="clip4faf7dxyplot" class="plotclip"><rect width="297" height="320"/></clipPath><clipPath class="axesclip" id="clip4faf7dx"><rect x="80" y="0" width="297" height="500"/></clipPath><clipPath class="axesclip" id="clip4faf7dy"><rect x="0" y="100" width="700" height="320"/></clipPath><clipPath class="axesclip" id="clip4faf7dxy"><rect x="80" y="100" width="297" height="320"/></clipPath></g><g class="gradients"/></defs><g class="bglayer"><rect class="bg" x="80" y="100" width="297" height="320" style="fill: rgb(229, 236, 246); fill-opacity: 1; stroke-width: 0;"/></g><g class="layer-below"><g class="imagelayer"/><g class="shapelayer"/></g><g class="cartesianlayer"><g class="subplot xy"><g class="layer-subplot"><g class="shapelayer"/><g class="imagelayer"/></g><g class="gridlayer"><g class="x"><path class="xgrid crisp" transform="translate(164.43,0)" d="M0,100v320" style="stroke: rgb(255, 255, 255); stroke-opacity: 1; stroke-width: 1px;"/><path class="xgrid crisp" transform="translate(248.87,0)" d="M0,100v320" style="stroke: rgb(255, 255, 255); stroke-opacity: 1; stroke-width: 1px;"/><path class="xgrid crisp" transform="translate(333.3,0)" d="M0,100v320" style="stroke: rgb(255, 255, 255); stroke-opacity: 1; stroke-width: 1px;"/></g><g class="y"><path class="ygrid crisp" transform="translate(0,408.35)" d="M80,0h297" style="stroke: rgb(255, 255, 255); stroke-opacity: 1; stroke-width: 1px;"/><path class="ygrid crisp" transform="translate(0,365.67)" d="M80,0h297" style="stroke: rgb(255, 255, 255); stroke-opacity: 1; stroke-width: 1px;"/><path class="ygrid crisp" transform="translate(0,328.03)" d="M80,0h297" style="stroke: rgb(255, 255, 255); stroke-opacity: 1; stroke-width: 1px;"/><path class="ygrid crisp" transform="translate(0,294.35)" d="M80,0h297" style="stroke: rgb(255, 255, 255); stroke-opacity: 1; stroke-width: 1px;"/><path class="ygrid crisp" transform="translate(0,263.89)" d="M80,0h297" style="stroke: rgb(255, 255, 255); stroke-opacity: 1; stroke-width: 1px;"/><path class="ygrid crisp" transform="translate(0,236.08)" d="M80,0h297" style="stroke: rgb(255, 255, 255); stroke-opacity: 1; stroke-width: 1px;"/><path class="ygrid crisp" transform="translate(0,210.49)" d="M80,0h297" style="stroke: rgb(255, 255, 255); stroke-opacity: 1; stroke-width: 1px;"/><path class="ygrid crisp" transform="translate(0,186.81)" d="M80,0h297" style="stroke: rgb(255, 255, 255); stroke-opacity: 1; stroke-width: 1px;"/><path class="ygrid crisp" transform="translate(0,164.76)" d="M80,0h297" style="stroke: rgb(255, 255, 255); stroke-opacity: 1; stroke-width: 1px;"/><path class="ygrid crisp" transform="translate(0,144.13)" d="M80,0h297" style="stroke: rgb(255, 255, 255); stroke-opacity: 1; stroke-width: 1px;"/><path class="ygrid crisp" transform="translate(0,124.75)" d="M80,0h297" style="stroke: rgb(255, 255, 255); stroke-opacity: 1; stroke-width: 1px;"/><path class="ygrid crisp" transform="translate(0,106.48)" d="M80,0h297" style="stroke: rgb(255, 255, 255); stroke-opacity: 1; stroke-width: 1px;"/></g></g><g class="zerolinelayer"><path class="xzl zl crisp" transform="translate(80,0)" d="M0,100v320" style="stroke: rgb(255, 255, 255); stroke-opacity: 1; stroke-width: 2px;"/></g><path class="xlines-below"/><path class="ylines-below"/><g class="overlines-below"/><g class="xaxislayer-below"/><g class="yaxislayer-below"/><g class="overaxes-below"/><g class="plot" transform="translate(80,100)" clip-path="url('#clip4faf7dxyplot')"><g class="scatterlayer mlayer"><g class="trace scatter trace1c475e" style="stroke-miterlimit: 2; opacity: 1;"><g class="fills"/><g class="errorbars"/><g class="lines"><path class="js-line" d="M0.21,16L0.96,145.41L0.96,145.41L0.97,145.9L1.66,163.72L1.72,163.12L1.73,163.2L1.79,160.17L2.28,169.46L2.48,167.81L2.49,167.07L2.74,170.98L3.06,162.05L3.24,168.32L3.25,168.15L3.34,165.49L3.5,175.25L4,168.14L4.01,167.19L4.01,166.74L4.51,180.63L4.76,175.09L4.77,175.16L4.93,179.52L5.14,169.26L5.52,178.88L5.53,178.59L5.99,179.97L6.26,171.35L6.29,174.4L6.29,175.29L6.52,169.78L6.79,182.5L7.04,175.94L7.05,175.67L7.06,174.99L7.53,184.96L7.56,184.47L7.56,184.53L7.79,177.83L8.31,189.01L8.39,187.61L8.4,187.72L8.83,182.18L9,190.97L9.15,182.25L9.16,182.07L9.19,181.76L9.84,198.28L9.91,195.46L9.92,195.95L9.92,195.65L10.63,206.6L10.67,205.14L10.68,204.88L10.83,200.26L11.27,207.58L11.43,205.14L11.44,206.01L12.04,209.62L12.14,202.23L12.19,204.71L12.2,204.98L12.21,204.03L12.77,213.01L12.95,210.38L12.96,210.18L13.25,203.73L13.69,214.73L13.71,212.86L13.72,212.78L14.01,203.51L14.26,218.09L14.47,209.25L14.48,209.23L14.52,207.76L14.74,221.83L15.23,215.02L15.24,214.55L15.33,207.8L15.95,220.45L15.99,216.66L16,216.92L16.3,209.03L16.73,219.01L16.75,218.5L16.76,219.63L16.8,223.15L17.39,211.84L17.51,216.96L17.52,217.37L17.55,216.4L17.79,225.28L18.27,219.74L18.28,219.79L18.6,209.27L18.87,222.46L19.03,217.26L19.04,217.39L19.3,212.51L19.72,223.19L19.79,219.56L19.8,219.44L20.11,216.11L20.49,230.76L20.55,228.93L20.56,227.9L20.75,217.36L20.95,229.81L21.31,221.75L21.32,222.91L21.35,226.06L21.85,214.69L22.07,222.36L22.08,221.02L22.23,217.92L22.44,226.99L22.83,220.27L22.84,220.12L22.96,214.56L23.45,225.82L23.59,218.65L23.6,218.79L23.64,217.98L24.1,230.01L24.35,226.86L24.36,226.22L24.66,220.87L24.87,231.34L25.11,227.47L25.12,228.2L25.45,225.63L25.77,233.74L25.87,226.19L25.88,225.95L26.15,217.32L26.45,232.83L26.63,226.62L26.64,225.54L27.15,223.77L27.36,235L27.39,231.43L27.4,231.93L27.81,225.26L28.12,237.98L28.15,234L28.16,234.5L28.23,236.04L28.83,223.97L28.91,225.25L28.92,224.76L28.93,224.63L29.37,239.09L29.67,233.21L29.68,233.44L29.72,239.66L30.25,224.42L30.43,237.15L30.44,236.47L30.53,238.93L30.66,229.84L30.67,230.18L30.67,229.51L30.73,226.04L31.01,238.71L31.08,237.96L31.08,239.09L31.78,222.29L31.9,228.26L31.91,228.69L31.92,224.67L32.42,241.86L32.66,229.16L32.67,229.65L32.91,229.2L33.41,242.07L33.42,241.08L33.43,241.1L33.63,231.28L34.02,241.77L34.18,238.48L34.19,238.03L34.47,247.56L34.94,232.74L34.94,233.32L34.95,234.11L34.96,233.9L35.15,245.56L35.16,245.85L35.22,250.58L35.71,234.26L35.91,240.9L35.92,241.22L36.08,246.66L36.34,233.06L36.67,238.77L36.68,239.33L36.95,236.32L37.21,244.82L37.43,242.09L37.44,242.28L37.62,235.58L38.02,244.93L38.19,242.69L38.2,243.41L38.5,244.6L38.7,236.29L38.95,241.73L38.96,242.11L39.09,244.11L39.41,225.89L39.71,238.78L39.72,238.85L40.05,246.43L40.44,232.92L40.47,235.81L40.48,235.58L41,231.32L41.23,247.48L41.24,246.79L41.27,248.61L41.39,239.37L41.99,244.16L42,244.25L42.22,234.77L42.43,246.27L42.75,242.23L42.76,242.03L42.99,248.86L43.37,236.01L43.49,244.55L43.49,245.72L43.58,251.51L43.7,239.96L44.17,244.78L44.17,243.6L44.42,253.9L44.58,243.08L44.6,243.46L44.61,243.26L44.97,247.92L45.23,238.42L45.36,240.32L45.37,242.48L45.85,249L46.06,234.29L46.12,240.77L46.13,240.43L46.18,235.29L46.65,247.62L46.88,237.78L46.89,238.34L47.45,249.44L47.64,237.05L47.65,236.18L47.69,235.02L47.95,251.37L48.4,244.48L48.41,244.64L48.66,249.39L48.91,239.51L49.16,240.88L49.17,240.29L49.26,238.33L49.62,252.77L49.92,243.13L49.93,245.28L50.13,250.86L50.61,242.49L50.68,245.57L50.69,244.71L50.93,238.37L51.39,257.36L51.44,256.09L51.45,256.82L51.48,259.07L51.69,240.96L52.2,246.11L52.21,246.55L52.29,243.51L52.87,259.41L52.96,252.05L52.97,252.09L53.4,255.03L53.72,247.17L53.73,246.95L54.05,253.36L54.26,242.24L54.48,247.79L54.49,247.77L54.51,248.96L55.14,241.45L55.24,246.61L55.24,247.29L55.51,260.88L55.74,246.02L55.99,247.17L56,245.86L56.03,241.32L56.73,261.56L56.75,259.96L56.76,259.95L57.08,241.2L57.51,256.87L57.52,257.01L57.53,259.41L57.9,247.45L58.27,250.36L58.28,250.51L58.33,246.99L58.93,260.2L59.03,253.58L59.04,253.95L59.25,257.32L59.62,242.12L59.79,251.88L59.8,252.82L60.29,258.43L60.55,246.93L60.56,246.87L60.66,246.14L60.98,259.95L61.31,257.39L61.32,256.33L61.35,257.22L62.05,244.18L62.07,245.78L62.08,246.58L62.1,245.33L62.58,261.58L62.83,252.51L62.84,253.11L63.06,260.16L63.27,245.18L63.59,255.06L63.6,255L63.67,250.28L64.32,267.25L64.35,265.26L64.36,264.46L64.6,248.5L64.81,266.75L65.11,256.35L65.12,255.14L65.27,257.03L65.52,246.86L65.87,254.36L65.88,256.55L66.13,253.82L66.34,266.06L66.63,259.2L66.64,259.78L67,264.15L67.35,246.88L67.39,246.89L67.4,247.8L67.42,247.53L67.71,262.62L68.15,258.95L68.16,259.18L68.29,268.46L68.56,257.21L68.91,259.08L68.92,259.77L69.14,256.38L69.66,266.01L69.67,263.7L69.68,262.7L70.06,267.1L70.39,251.55L70.43,253.96L70.44,253.69L71.01,263.27L71.19,254.62L71.2,255.17L71.35,267.25L71.85,254.48L71.95,260.16L71.96,260.34L72.05,267.81L72.58,256.71L72.71,262.61L72.72,263.07L73.18,255.04L73.39,269.06L73.47,266.36L73.48,266.17L73.55,268.47L73.96,250.32L74.23,260.63L74.24,260.71L74.26,257.98L74.99,269.87L75,268.59L75.01,272.14L75.19,260.74L75.2,261.27L75.2,259.5L75.28,254.7L76,269.85L76.02,267.79L76.03,267.34L76.55,269.31L76.76,247.8L76.78,248.03L76.79,247.46L77.05,267.61L77.61,259.67L77.62,258.96L77.98,269.63L78.18,257.05L78.28,265.94L78.28,267.07L78.34,272.92L79.12,254L79.22,256.63L79.22,259.31L79.39,264.63L79.6,251.12L79.9,262.24L79.9,262.64L80.08,259.29L80.38,268.64L80.45,266.6L80.46,268.75L80.69,257.23L80.99,274.12L81.21,263.98L81.22,263.21L81.46,262.04L81.69,273.93L81.97,263.54L81.98,263.27L82.13,257.88L82.35,271.6L82.73,262.47L82.74,262.76L83.16,268.06L83.45,257.49L83.49,260.88L83.5,260.82L84.07,258.59L84.25,270.48L84.26,270.61L84.31,275.65L84.83,260.36L85.01,262.48L85.02,263.41L85.07,258.51L85.37,273.33L85.77,264.17L85.78,264.1L85.86,258.28L86.16,279.1L86.53,261.06L86.54,261.72L86.68,254.14L87.1,274.22L87.35,264.63L87.35,263.35L87.59,259.56L87.81,276.18L88.07,263.53L88.07,262.6L88.36,272.52L88.86,255.79L88.87,256.97L88.87,258.75L88.9,258.55L89.5,274L89.66,262.2L89.67,260.99L89.72,258.05L90.42,272.03L90.42,271.22L90.43,272.45L90.46,279.06L90.67,264.18L91.18,272.31L91.19,272.32L91.2,273.74L91.41,264.16L91.94,267.5L91.95,267.74L92.42,259.57L92.7,273.42L92.71,273.09L92.72,273.58L93.08,259.42L93.33,268.15L93.34,266.81L93.37,270.68L93.84,250.53L94.09,266.51L94.1,267.13L94.18,263.44L94.76,274.83L94.85,273.68L94.86,274.83L94.94,280.46L95.3,263.88L95.61,272.56L95.62,272.01L95.71,265.2L96.18,280.12L96.37,272.28L96.38,271.66L96.77,285.96L97.09,264.03L97.13,271.92L97.14,272.14L97.61,278.84L97.82,266.56L97.89,272.38L97.9,272.21L98.17,283.91L98.65,269.41L98.66,269.29L98.83,262.16L99.4,275.27L99.41,273.41L99.42,272.22L99.59,279.77L100.17,260.64L100.18,261.19L100.29,257.83L100.89,282.49L100.93,280.48L100.94,280.86L101,284.24L101.62,265.01L101.69,270.22L101.7,270.99L101.78,280.5L102.45,280.4L102.46,280.64L102.65,269.14L103.21,276.84L103.22,277.65L103.36,280.86L103.57,268.41L103.97,277.06L103.98,277.1L103.99,277.8L104.32,265.19L104.73,272.25L104.74,272.54L105.17,281.31L105.38,268.52L105.49,273.54L105.5,272.42L105.62,269.72L106.09,284.64L106.25,277.26L106.26,276.97L106.39,265.2L106.94,277.22L107.01,273L107.02,273.03L107.22,284.2L107.37,268.88L107.77,275.37L107.78,275.02L108.04,278.12L108.17,268.84L108.53,271.2L108.54,271.99L108.82,269.44L108.97,280.46L109.29,275.68L109.3,275.17L109.42,278.04L109.94,267.12L110.05,270.8L110.06,269.3L110.61,284.45L110.81,279.59L110.82,279.09L111.22,262.94L111.55,282.45L111.57,277.97L111.58,276.55L111.81,291.38L112.22,271.01L112.33,274.02L112.34,273.89L112.68,281.59L112.91,271.59L113.09,276.97L113.1,276.52L113.14,282.04L113.55,273.45L113.55,270.92L113.7,269.43L114.21,286.06L114.34,280.54L114.35,279.02L114.69,285.2L114.93,265.19L115.02,274.93L115.03,275.58L115.46,288.45L115.65,269.17L115.78,278.53L115.79,278.53L115.94,272.56L116.15,287.12L116.54,282.15L116.55,280.88L116.81,291.16L117.09,274.07L117.3,288.91L117.31,288.66L117.79,275.63L117.95,295.46L118.06,288.39L118.07,287.01L118.09,287.45L118.4,272.57L118.82,282.3L118.83,282.01L118.97,292.51L119.42,274.69L119.58,282.33L119.59,282.75L119.59,281.37L119.81,292.04L120.34,284.74L120.35,284.9L120.77,292.55L120.97,276.33L121.1,288.25L121.11,289.47L121.16,297.94L121.63,274.21L121.86,286.43L121.87,288.31L121.95,292.05L122.09,276.59L122.62,280.83L122.63,281.22L122.97,288.49L123.37,267.99L123.38,270.11L123.39,269.4L124,291.7L124.14,283.26L124.15,283.41L124.4,276.6L124.61,287.68L124.9,285.17L124.91,283.65L125.39,295.14L125.6,276.21L125.66,282.06L125.67,280.52L125.85,274.87L126.35,287.23L126.42,284.26L126.43,284.32L126.92,296.13L127.18,279.93L127.19,280.14L127.82,291.12L127.94,288.56L127.95,287.23L128,284.83L128.11,293.62L128.15,293.43L128.16,294.57L128.2,296.12L128.9,277.59L128.91,278.46L128.92,277.66L128.95,276.13L129.66,295.84L129.67,294.49L129.68,294.26L129.83,296.29L130.19,285.11L130.43,288.8L130.44,289.58L130.68,291.66L130.93,273.17L131.19,286.47L131.2,286.29L131.25,282.86L131.66,297.94L131.95,285.01L131.96,285.95L132.08,278.64L132.68,298.79L132.71,295.97L132.72,294.71L132.89,288.72L133.32,299.58L133.47,292.15L133.48,290.79L133.69,277.84L133.96,295.23L134.23,288.63L134.24,289.14L134.28,292.36L134.54,280.33L134.99,286.07L135,286.05L135.27,280.58L135.75,294.97L135.75,294.7L135.76,295.42L135.79,299.04L136.17,280L136.51,292.49L136.52,292.55L136.73,304L137.02,281.36L137.03,280.32L137.49,296.13L137.78,288.87L137.79,287.57L138.15,284.12L138.31,299.83L138.32,298.66" style="vector-effect: non-scaling-stroke; fill: none; stroke: rgb(99, 110, 250); stroke-opacity: 1; stroke-width: 2px; opacity: 1;"/></g><g class="points"/><g class="text"/></g><g class="trace scatter trace593ece" style="stroke-miterlimit: 2; opacity: 1;"><g class="fills"/><g class="errorbars"/><g class="lines"><path class="js-line" d="M0.21,42.35L0.92,150.34L0.96,146.89L0.97,147.38L1.02,153.44L1.28,137.91L1.72,145.55L1.73,145.78L1.75,142.43L2.31,159.19L2.48,149.39L2.49,149.94L2.61,141.7L2.9,159.5L3.24,148.91L3.25,148.12L3.58,162.52L3.94,147.25L4,152.49L4.01,151.95L4.1,148.14L4.76,161.42L4.77,160.53L4.95,149.92L5.44,161.46L5.52,157.59L5.53,158.29L6.05,148.86L6.26,166.65L6.28,164.53L6.29,163.33L6.47,150.56L7.04,153.36L7.05,150.97L7.27,166.91L7.8,154.24L7.81,154.06L7.9,148.74L8.13,161.75L8.55,150.97L8.56,153.08L8.76,167.15L9.17,151.68L9.31,161.31L9.32,161.45L9.39,164.32L9.57,148.77L10.07,156.36L10.08,157.2L10.22,166.37L10.6,150.73L10.83,154.61L10.84,155.85L11.33,161.17L11.53,148.97L11.59,155.61L11.6,156.03L12,142.06L12.26,165.85L12.35,160.91L12.36,162L12.53,163.78L12.73,148.31L13.11,152.39L13.12,153.63L13.18,148.48L13.87,167.58L13.88,167.82L13.89,170.32L14.01,155.75L14.63,159.32L14.64,157.88L14.67,163.22L15.24,151.59L15.36,156.5L15.37,155.91L15.59,152.55L16.07,165.8L16.11,164.94L16.12,163.1L16.87,151.28L16.88,151.22L16.98,148.31L17.63,163.61L17.64,163.7L17.75,167.65L18.09,154.26L18.39,157.64L18.4,157.15L18.57,156.32L18.87,168.07L19.15,161.69L19.16,162.05L19.46,166.28L19.88,153.26L19.91,157.92L19.92,157.71L20.02,156.08L20.17,164.97L20.67,160.87L20.68,160.97L21.18,148.4L21.42,166.08L21.43,165.48L21.44,166.4L21.55,169.53L21.76,155.24L21.89,165.17L21.9,165.78L21.94,167.07L22.14,152.38L22.65,163.19L22.66,162.43L22.97,154.13L23.19,166.43L23.41,160.86L23.42,160.66L23.71,164.3L23.94,151.09L24.17,152.5L24.18,152.27L24.51,150.24L24.7,170.21L24.93,160.29L24.94,162.1L25.2,153.37L25.63,168.25L25.69,160.35L25.7,160.66L25.91,163.33L26.4,146.28L26.45,147.61L26.46,146.33L26.49,145.73L27.16,161.55L27.21,156.85L27.22,157.34L27.37,151.97L27.67,163.33L27.97,161.05L27.98,161.61L28.07,166.1L28.3,153.73L28.73,163.72L28.74,163.96L28.93,156.17L29.21,172.9L29.49,165.49L29.5,164.72L29.8,165.67L30.03,153.37L30.25,162.55L30.26,161.81L30.8,172.56L30.93,158.27L31.01,158.81L31.02,158.16L31.22,167.09L31.48,154.15L31.77,157.16L31.78,157.41L32.22,168.51L32.46,152.47L32.53,152.62L32.54,153.48L32.54,152.21L32.75,170.82L33.29,164.47L33.3,163.92L33.4,167.71L33.98,147.61L34.05,152.61L34.06,152.6L34.24,158.42L34.45,150.23L34.81,156.82L34.82,156.26L35.18,153.2L35.55,164.11L35.57,161.71L35.58,161.39L35.72,149.87L36.31,161.86L36.33,158.4L36.34,156.7L36.5,152.34L36.91,168.64L37.09,164.1L37.1,163.28L37.42,145.28L37.83,171.64L37.85,170.63L37.86,170.17L37.91,170.51L38.46,156.55L38.61,160.88L38.62,160.17L39.05,167.83L39.25,149.71L39.37,167.54L39.38,167.43L39.46,170.25L40.08,160.75L40.13,162.05L40.14,161.44L40.29,171.43L40.63,154.31L40.89,160.43L40.9,160.94L41.08,153.61L41.25,163.44L41.65,157.81L41.66,157.29L41.78,166.76L42.21,148.65L42.41,157.4L42.42,156.45L42.74,165.88L42.97,151.63L43.17,164.76L43.18,166.05L43.36,166.44L43.82,157.5L43.93,161.27L43.94,161.37L44.04,167.16L44.35,151.58L44.69,160.73L44.7,160.58L44.91,153.09L45.27,166.74L45.45,157.38L45.46,157.73L45.86,166.28L46.07,155L46.21,156.77L46.22,154.83L46.8,149.3L46.96,164.28L46.97,163.77L46.98,162.73L47.2,152.94L47.48,168.1L47.73,160.94L47.74,162.02L48.07,153.78L48.41,166.62L48.49,160.2L48.5,159.95L48.85,152.07L49.13,169.07L49.25,161.85L49.26,160.56L49.53,161.56L49.77,149.04L50.01,158.12L50.02,159.45L50.28,155.78L50.55,162.86L50.77,159.12L50.78,158.84L51.17,171.89L51.52,142.42L51.53,145.98L51.54,145.24L51.56,144.24L52.28,162.09L52.29,161.6L52.3,161.1L52.58,168.51L52.88,152.35L53.05,157.78L53.06,158.67L53.38,163.98L53.56,154.37L53.81,156.38L53.82,156.34L53.86,151.54L54.45,166.76L54.57,166.25L54.58,165.92L54.78,155.76L55.08,168.51L55.34,162.98L55.35,164.05L56.01,150.85L56.1,159.56L56.11,158.69L56.3,155.32L56.72,170.85L56.86,163.65L56.87,163.32L57.33,167.76L57.59,153.5L57.62,156.67L57.63,157.06L57.8,168.55L58.1,150.63L58.38,156.68L58.39,157.93L58.82,155.31L59.1,166.4L59.14,165.38L59.15,165.26L59.21,168.47L59.55,151.27L59.9,158.1L59.91,159.22L59.96,165.26L60.15,152.27L60.57,152.56L60.58,151.3L60.87,168.88L61.33,158.05L61.34,156.41L61.38,153.75L61.95,170.1L62.09,161.07L62.1,160.76L62.4,153.94L62.51,164.67L62.85,158.17L62.86,157.93L63.02,165.73L63.44,155.79L63.61,161.57L63.62,160.82L63.85,154.8L64.33,168.97L64.36,164.61L64.37,164.58L64.54,158.94L64.8,169.36L65.12,163.55L65.13,162.36L65.3,174.42L65.52,156.84L65.88,168.79L65.89,168.93L65.99,174.01L66.33,157.56L66.64,160.31L66.65,160.09L67.08,152.98L67.3,167.69L67.4,160.92L67.41,159.76L67.85,162.95L68.06,152.55L68.16,160.48L68.17,161.4L68.43,165.84L68.67,153.33L68.92,160.32L68.93,159.58L69.28,154.71L69.47,168.88L69.68,160.27L69.69,161.87L69.86,165.53L70.21,153.18L70.44,161.76L70.45,161.5L70.73,165.22L70.99,153.12L71.2,165.07L71.21,166.2L71.63,155.3L71.91,170.42L71.96,165.87L71.97,166.4L72.05,168.79L72.52,154.36L72.72,159.89L72.73,160.63L72.92,170.52L73.14,153.64L73.48,163.44L73.49,163.69L73.95,157.51L74.24,171.79L74.25,171.85L75,154.89L75.01,156.25L75.19,162.72L75.74,152.48L75.76,154.82L75.77,154.9L75.82,153.54L76.45,166.33L76.52,160.61L76.53,159.97L76.74,163.95L77.11,151.74L77.28,158.68L77.29,158.46L77.5,150.48L78.04,163.37L78.04,162.36L78.05,162.37L78.19,163.94L78.67,149.54L78.8,159.03L78.81,159.52L79.02,147.1L79.54,165.89L79.56,163.78L79.57,164.38L79.73,169.58L80.32,153.04L80.32,154.63L80.33,155.37L80.35,153.11L80.8,169.11L81.08,167.34L81.09,165.63L81.44,169.33L81.71,160.33L81.84,168.74L81.85,168.94L81.87,171.59L82.52,153.4L82.6,155.61L82.61,156.26L83,153.63L83.27,161.99L83.36,159.81L83.37,158.84L83.77,151.91L83.99,169.18L84.12,164.35L84.13,165.33L84.58,170.03L84.81,156.17L84.88,161.86L84.89,160.89L85.03,168.25L85.47,154.08L85.64,159.25L85.65,159.38L85.84,168.76L85.96,155.93L86.4,160.62L86.41,159.37L86.43,158.19L86.58,170.78L87.16,165.13L87.17,165.03L87.4,153.62L87.65,167.42L87.92,159.06L87.93,159.1L88.19,169.12L88.41,152.47L88.68,159.56L88.69,159.86L88.75,156.03L89.27,169.35L89.44,163.69L89.45,162.44L89.63,167.62L89.99,151.24L90.2,158.87L90.21,158.16L90.28,156.48L90.93,169.14L90.96,166.35L90.97,163.96L91.29,150.59L91.49,168.58L91.72,157.89L91.73,157.32L91.87,168.74L92.23,154.77L92.48,160.53L92.49,159.91L93.03,156.36L93.18,165.84L93.24,164.42L93.25,164.05L93.4,153.82L93.98,165.96L94,165.08L94.01,165.2L94.62,165.47L94.72,154.77L94.76,158L94.77,158.53L94.85,154.44L95.09,174.27L95.52,155.63L95.53,154.78L95.67,149.38L95.81,163.95L96.16,159.81L96.16,160.8L96.51,156.07L97.01,170.53L97.02,168.09L97.03,167.7L97.74,154.64L97.78,157.61L97.79,158.07L97.83,155.96L98.16,175.39L98.54,161.21L98.55,161.4L98.74,154.02L99.17,167.92L99.3,167.37L99.31,167.01L99.36,167.89L100.01,154.98L100.06,160.66L100.07,159.05L100.61,167.24L100.81,148.09L100.82,149.71L100.83,150.46L101.23,171.66L101.58,157.13L101.59,157.01L101.6,155.37L102.28,166.36L102.29,166.68L102.69,172.72L103.03,154.79L103.04,156.38L103.05,155.57L103.1,153.82L103.33,170.55L103.8,159.55L103.81,158.49L104.34,152.13L104.55,165.6L104.56,165.31L104.57,165.01L104.73,159.43L105.06,170.96L105.32,162.4L105.33,161.68L105.39,165.74L105.77,152.97L106.08,164.02L106.09,166.89L106.17,167.54L106.61,154.7L106.84,162.5L106.85,163.04L107.24,167.31L107.38,158L107.6,163.78L107.61,163.51L107.85,153.81L108.13,167.91L108.36,160.56L108.37,160.97L108.64,156.22L108.87,173.32L109.12,161.13L109.13,162.9L109.64,155.83L109.86,169.37L109.88,167.96L109.89,167.5L109.9,170.62L110.53,147.22L110.64,151.06L110.65,152.33L110.94,167.53L111.4,163.98L111.41,163.56L111.63,149.01L111.85,168.6L112.16,155.84L112.17,157.15L112.23,148.59L112.45,167.63L112.92,162.42L112.93,162.13L113.25,167.04L113.49,159.21L113.63,165.49L113.63,165.85L113.71,166.27L114,155.49L114.33,164.81L114.34,164.66L114.71,172.23L115.03,158.54L115.09,160.49L115.1,159.82L115.36,164.04L115.62,151.97L115.85,162.28L115.86,163.06L116.08,172.37L116.3,157.24L116.61,163.09L116.62,162.8L116.88,157.88L117.1,170.07L117.37,161.68L117.38,160.21L117.82,152.59L118.03,167.83L118.13,156.5L118.14,156.47L118.4,146.77L118.63,164.71L118.89,160.12L118.9,159.46L119.08,157.72L119.28,167.11L119.65,167.04L119.66,167.39L119.79,169.36L120.11,157.83L120.41,159.6L120.42,160.97L120.76,156.64L121.06,166.74L121.17,161.33L121.18,160L121.35,152.4L121.92,170.5L121.93,169.53L121.94,168.65L121.96,169.69L122.22,154.08L122.69,159.22L122.7,158.07L123.27,166.45L123.45,155L123.45,155.6L123.46,156.48L123.58,166.43L123.8,149.39L124.21,160.8L124.22,160.15L124.28,164.34L124.58,156.61L124.92,160.61L124.93,162.38L125.04,166.29L125.25,158.91L125.25,159.31L125.26,157.78L125.53,155.29L125.88,168.92L126.01,165.38L126.02,165.47L126.45,168.38L126.6,157.72L126.77,165.78L126.78,166.1L126.78,167.75L127.13,151.62L127.53,159.41L127.54,160.31L127.71,167.81L128.29,153.86L128.29,154.25L128.3,153.41L128.3,153.18L128.51,169.66L129.05,159.7L129.06,159.98L129.3,167.96L129.53,152.48L129.81,161.37L129.82,162L129.84,163.89L130.19,150.12L130.57,162.7L130.58,162.62L130.95,167.15L131.17,156.28L131.33,166.71L131.34,167.86L131.61,170.38L131.96,160.68L132.09,168.31L132.1,169.6L132.17,169.78L132.73,155.26L132.85,159.65L132.86,159.14L133.15,150.75L133.36,169.92L133.61,159.67L133.62,160.25L133.92,167.08L134.18,156.71L134.37,163.7L134.38,165.07L134.49,169.48L134.7,156.45L135.13,160.15L135.14,160.04L135.35,166.95L135.6,155.16L135.89,164.18L135.9,164.31L136.08,157.28L136.3,165.23L136.65,159.5L136.66,160.22L136.82,164.87L137.33,149.3L137.42,154.26L137.43,158.92L137.56,168.75L138.05,154.31L138.18,163.75L138.19,164.18L138.41,153.68L138.72,167.75L138.75,167.2L138.75,168.34L138.82,169.76L139.04,153.36L139.38,161.54L139.39,160.86L139.54,157.34L139.79,167.47L140.14,162.1L140.15,162.26L140.22,160.01L140.85,169.51L140.9,168.75L140.91,165.71L141.38,156.61L141.66,167.62L141.67,168L141.95,155.39L142.37,172.83L142.42,171.03L142.43,170.67L142.61,161.02L143.06,169.21L143.06,170.07L143.1,172.09L143.35,156.45L143.57,159.88L143.57,158.75L143.99,155.01L144.4,172.92L144.42,169.66L144.43,169.25L144.61,150.34L145.18,160.93L145.19,159.93L145.2,158.77L145.42,170.83L145.94,163.28L145.95,164.33L146.12,149.85L146.41,169.67L146.7,160.7L146.71,160.76L146.95,153.53L147.46,168.81L147.46,167.95L147.47,167.93L147.48,169.32L147.8,151.56L148.22,158.27L148.23,159.21L148.38,154.33L148.6,168.74L148.98,163.58L148.99,162.74L149.25,171.54L149.51,151.68L149.74,162.48L149.75,162.8L149.88,165.65L150.48,156.06L150.5,156.78L150.51,157.67L150.62,150.64L151.26,167.96L151.27,168.17L151.38,170.67L152.02,158.02L152.02,159.16L152.03,159.33L152.21,154.94L152.45,167.03L152.78,155.36L152.79,153.27L152.94,148.32L153.31,162.34L153.54,159.59L153.55,159.9L154.04,166.25L154.18,150.43L154.3,156.95L154.31,157.2L154.49,167.11L154.7,155.69L154.93,163.7L154.94,163.51L155.53,153.62L155.69,165.57L155.69,164.96L155.7,166.11L155.77,168.54L156.01,154.11L156.54,158.96L156.54,159.94L156.78,151.45L157.12,169.19L157.23,166.48L157.24,166.91L157.52,156.99L157.98,170.3L157.99,169.17L158,168.38L158.37,174.65L158.58,151.41L158.75,159.61L158.76,159.88L158.81,156.74L159.03,170.85L159.51,168.44L159.52,168.46L159.57,168.51L159.97,155.31L160.27,162.3L160.28,163.53L160.69,167.66L160.98,154.72L161.03,158.92L161.04,160.39L161.4,156.42L161.6,171.54L161.79,161.18L161.8,161.08L161.96,169.36L162.41,152.08L162.55,157.85L162.56,155.3L162.71,154.84L163.22,166.2L163.32,158.36L163.33,158.4L163.62,154.64L163.84,169.39L164.08,162.07L164.09,162.07L164.32,170.18L164.53,159.16L164.84,163.83L164.85,164.17L165.03,153.92L165.57,172.28L165.6,170.62L165.61,169.24L165.92,154.46L166.36,163.32L166.37,163.1L166.41,157.65L166.62,170.17L167.12,161.01L167.13,161.03L167.55,153.7L167.87,166.01L167.88,165.1L167.89,164.56L168.03,169.86L168.11,162.11L168.64,162.39L168.65,162.68L168.93,149.65L169.4,169.48L169.41,169.25L169.52,175.83L170.05,158.57L170.16,160.81L170.17,162.86L170.42,157.74L170.62,171.49L170.92,162.79L170.93,161.94L171.11,170.37L171.68,157.78L171.69,158.51L171.92,166.71L172.26,149.93L172.44,160.31L172.45,161.69L172.88,150.49L173.19,167.55L173.2,167.55L173.21,167.23L173.21,169.3L173.54,156.62L173.96,159.89L173.97,159.1L174.1,167.45L174.51,153.74L174.7,160.19L174.7,161.91L175.2,153.97L175.41,169.56L175.45,166.44L175.46,165.12L175.5,167.6L176.08,155.24L176.21,159.04L176.22,159.42L176.7,166.48L176.91,154.19L176.97,164.39L176.98,164.05L177,166.88L177.34,155.15L177.73,160.65L177.74,161.01L177.97,162.84L178.21,153.61L178.49,162.34L178.5,162.23L178.76,154.79L179.19,169.53L179.25,167.83L179.26,168.58L179.71,153.01L179.93,173.37L180.01,166.91L180.02,165.85L180.28,168.32L180.44,156.14L180.77,164.94L180.78,164.45L181.23,152.04L181.53,168.33L181.53,168.06L181.54,168.23L181.56,169.07L182.28,153.13L182.29,153.72L182.3,153.19L182.38,151.78L182.99,166.14L183.05,160.59L183.06,161.02L183.09,163.57L183.39,147.99L183.81,159.03L183.82,159.29L184.13,160.8L184.22,153.63L184.4,160.76L184.4,161.08L184.44,165.51L184.8,153.6L185.15,157.67L185.16,158.33L185.39,166.38L185.81,150.87L185.91,156.75L185.92,156.15L185.95,154.38L186.62,168.65L186.67,166.61L186.68,166.53L187.16,173.03L187.42,160.9L187.43,161.58L187.44,161.23L187.63,172.04L187.94,148.88L188.19,162.11L188.2,162.41L188.64,170.5L188.85,156.98L188.95,163.39L188.96,164.74L189.06,173.14L189.43,152.88L189.71,156.33L189.72,156.38L189.81,152.29L190.2,168.3L190.47,157.52L190.48,154.71L190.92,151.42L191.21,167.06L191.23,162.85L191.24,163.09L191.66,154.49L191.87,167.83L191.99,159.24L192,159.41L192.11,150.42L192.73,170.19L192.75,168.19L192.76,167.08L192.8,169.14L193.09,152.29L193.51,160.77L193.52,160.34L193.8,151.9L194.21,163.31L194.27,161.72L194.28,160.53L194.62,168.43L194.83,152.93L195.03,164.04L195.04,163.88L195.34,150.63L195.58,166.15L195.79,159.52L195.8,160.81L196.16,169.15L196.55,155.71L196.56,155.27L196.82,172.87L197.29,153.32L197.31,156.31L197.32,156.9L197.62,154.05L197.88,164.21L198.07,157.39L198.08,156.8L198.41,152.67L198.64,164.14L198.83,158.33L198.84,158.56L199.25,166.03L199.59,153.68L199.59,154.28L199.6,154.15L200.13,170.65L200.35,161.55L200.36,160.51L200.5,153.34L201.13,172.59L201.17,169.06L201.17,168.44L201.19,168.63L201.66,155.46L202,159.7L202,161.5L202.16,154.28L202.49,165.44L202.69,159.76L202.7,158.02L203.07,157.5L203.39,168.83L203.45,162.11L203.46,162.33L203.91,154.5L204.16,168.14L204.21,164.55L204.22,165.17L204.26,168.01L204.5,156.56L204.65,156.84L204.65,155.61L204.66,152.33L204.88,166.16L205.32,159.01L205.33,159.37L205.75,158.19L205.9,170.71L206.08,162.39L206.09,162.74L206.23,165.09L206.61,151.79L206.84,162.06L206.85,162.79L207.08,159.02L207.32,170.79L207.6,160.45L207.61,160.05L208.01,166L208.34,150.21L208.36,153.94L208.37,153.23L208.56,166.07L209.12,160.31L209.13,161.93L209.22,156.64L209.47,168.82L209.88,163.98L209.89,162.44L210.33,157.49L210.64,165.31L210.64,163.84L210.65,163.14L211.22,176.57L211.4,157.24L211.41,157.21L211.47,154.89L211.89,170.99L212.16,166.6L212.17,166.47L212.7,153.41L212.92,161.88L212.93,162.14L213.19,166.21L213.46,152.84L213.68,161.05L213.69,159.73L214.19,164.91L214.4,147.84L214.44,150.28L214.45,150.41L214.99,149.18L215.2,165.65L215.21,166.17L215.54,155.16L215.83,169.83L215.96,167.02L215.97,166.52L215.98,166.72L216.16,150.99L216.72,161.29L216.73,162.53L216.83,167.05L217.37,156L217.41,164.05L217.41,165.18L217.41,166.48L217.91,155.85L218.16,164.27L218.17,164.27L218.22,158.28L218.4,170.76L218.92,159.28L218.93,159.45L219.18,168.39L219.42,148.72L219.68,155.24L219.69,155.57L219.72,154.58L220.02,170.97L220.44,156.68L220.45,157.95L220.45,157.57L221.1,170.86L221.2,166.22L221.21,165.33L221.29,172.36L221.75,157.08L221.96,164L221.97,165.26L222.23,157.14L222.44,170.12L222.72,162.61L222.73,162.06L223.28,171.16L223.42,159.12L223.48,161.74L223.49,161.99L223.79,156.33L224.15,168.58L224.24,167.1L224.25,166.04L224.44,167.74L224.99,154.16L225,155.96L225.01,155.28L225.2,168.33L225.35,151.23L225.76,162.33L225.77,162.8L225.92,155.07L226.41,168.62L226.52,165.57L226.53,165.05L226.63,161.11L226.83,169.05L227.28,168.87L227.29,169.71L227.38,171.58L227.77,151.87L228.04,162.19L228.05,161.9L228.31,157.3L228.53,172.31L228.8,166.56L228.81,167.37L228.82,168.37L229.22,157.84L229.47,159.14L229.48,159.12L229.66,147.71L230.23,167.03L230.24,166.75L230.52,161.4L230.86,170.04L231.01,164.31L231.01,165.1L231.02,166.05L231.3,152.8L231.69,158.64L231.69,158.3L232.16,146.01L232.36,160.53L232.39,160.49L232.39,162.11L232.46,158.22L232.97,171.72L233.08,162.22L233.08,161.84L233.1,162.83L233.38,149.85L233.82,161.15L233.83,162L234.28,163.47L234.52,150.62L234.58,157.65L234.59,157.32L234.73,167.48L235.34,163.83L235.35,164.09L235.61,171.27L236.04,158.8L236.1,162.62L236.11,161.61L236.18,156.18L236.85,170.06L236.86,169.36L236.87,168.18L237.23,168.81L237.45,155.12L237.62,161.43L237.63,162.18L237.64,162.96L237.94,148.05L238.32,158.26L238.32,157.22L238.61,168.91L239.07,150.71L239.08,150.73L239.21,165.98L239.83,158.3L239.84,159.54L240.08,156.72L240.29,171.41L240.42,162.15L240.43,161.6L240.72,173.53L241.13,152.41L241.18,155.83L241.19,156.43L241.25,152.93L241.92,166.81L241.94,166.46L241.95,165.54L242.28,154.56L242.48,171.37L242.7,165.08L242.71,165.16L242.79,169.22L243.18,154.48L243.46,160.19L243.47,159.58L243.69,156.78L243.9,167.68L244.22,158.31L244.23,157.88L244.42,151.22L244.98,167.91L244.98,167.54L244.99,167.3L245.07,171.77L245.35,144.79L245.74,164.4L245.75,163.47L245.95,154.39L246.16,165.62L246.5,160.98L246.51,161.06L246.74,152.84L246.98,170.69L247.26,158.23L247.27,158.57L247.28,156.86L247.73,169.44L248.02,164.44L248.03,164.72L248.44,157.48L248.6,168.46L248.78,162.95L248.79,162.67L248.92,151.43L249.3,173.99L249.54,162.51L249.55,163.29L249.68,171.83L250.02,153.69L250.3,158.43L250.31,159.16L250.41,153.45L251.06,173.84L251.06,173.41L251.07,174.16L251.52,156.03L251.88,161.5L251.88,163.19L252.24,155.8L252.55,169.6L252.63,164.6L252.64,165.29L252.94,170.25L253.32,157.35L253.39,163.1L253.4,162.83L253.51,166.7L253.69,158.9L254.12,166.08L254.13,167.18L254.34,147.41L254.68,169.36L254.88,163.26L254.89,162.35L255.38,156.79L255.59,168.09L255.64,161.78L255.65,162.23L255.9,167.13L256.35,153.98L256.4,154.49L256.41,154.86L256.99,172.51L257.16,165.67L257.17,164.74L257.29,167.74L257.73,148.85L257.92,164.09L257.93,163.9L257.95,168.03L258.49,156.64L258.55,159.48L258.56,159.25L258.79,148.23L259.03,163.3L259.31,156.28L259.32,158.15L259.82,171.26L260.07,156.32L260.08,157.33L260.45,167.91L260.75,153.23L260.83,159.99L260.84,159.25L260.92,154.03L261.28,167.86L261.59,164.46L261.6,164.46L261.75,156.13L262.02,168.87L262.35,166.54L262.36,166.17L262.61,154.74L263.11,160.86L263.12,160.54L263.29,171.88L263.51,158.13L263.87,166.59L263.88,164.54L264.05,153.21L264.25,166.84L264.63,164.25L264.64,166.15L264.73,169.81L265.15,159.1L265.39,166.54L265.4,167.09L265.61,154.19L265.82,167.86L266.21,156.73L266.22,158.85L266.42,164.05L266.95,153.03L266.97,154.22L266.98,155.21L267.22,169.47L267.6,153.19L267.73,159.68L267.74,161.36L267.99,151.75L268.2,166.04L268.49,158.92L268.5,157.57L268.51,155.71L268.77,168.66L269.25,159.56L269.26,159.24L269.46,148.46L269.99,168.02L270.01,167.21L270.02,166.82L270.02,168.21L270.64,154.62L270.77,158.17L270.78,159L271.05,170.05L271.24,153.59L271.53,164.29L271.54,164.95L271.81,169.15L272.19,158.3L272.29,162.64L272.3,161.56L272.38,157.61L272.97,168.04L273.05,161.89L273.06,162.06L273.1,156.72L273.35,173.74L273.81,164.08L273.82,162.46L274.36,172.21L274.55,156.96L274.57,158.67L274.58,158.45L274.92,154.9L275.14,167.24L275.33,156.81L275.34,156.72L275.36,155.59L276.09,174.82L276.09,173.3L276.1,173.22L276.13,174.26L276.34,163.83L276.85,172.57L276.86,172.86L277.46,160.28L277.61,167.96L277.62,168.69L278.18,151.3L278.37,157.58L278.38,155.9L278.48,150.15L279,172.24L279.13,166.35L279.14,166.03L279.31,156.44L279.54,167.38L279.92,161.18L279.93,162.63L280.51,167.71L280.65,158.17L280.68,158.74L280.69,157.83L281.01,152.85L281.43,171.26L281.44,169.43L281.45,169.32L281.82,159.64L282.17,172.19L282.2,165.68L282.21,165.68L282.44,154.72L282.91,170.1L282.96,167.11L282.97,167.21L283.22,154.19L283.75,161.26L283.75,162.14L283.99,170.03L284.19,153.3L284.45,156.72L284.46,154.33L284.49,153.58L285.18,173.29L285.21,167.44L285.22,167.51L285.47,168.54L285.94,149.89L285.97,156.5L285.98,155.18L286.42,170.99L286.67,154.5L286.73,158.06L286.74,158.85L286.94,167.87L287.34,149.93L287.49,158.78L287.5,158.52L287.94,154.4L288.21,169.32L288.25,166.86L288.26,166.8L288.46,155.11L288.79,169.6L289.01,163.24L289.02,164.11L289.08,166.08L289.31,152.11L289.77,162.52L289.78,162.75L289.87,166.25L290.23,153.21L290.53,154.99L290.54,154.87L290.61,153.34L291.27,170.64L291.29,170.27L291.3,169.97L291.34,170.32L291.6,152.14L292.05,165.92L292.06,166.84L292.14,168.56L292.33,154.1L292.81,161.97L292.82,163.36L292.86,160.92L293.56,169.1L293.57,166.72L293.58,165.44L293.8,169.43L294.2,149.84L294.33,155.56L294.34,154.19L294.8,152.89L294.99,162.54L295.09,158.76L295.1,158.58L295.15,155.93L295.44,167.27L295.85,164.75L295.86,164.79L295.86,165.14L296.14,148.26L296.61,157.13L296.62,156.99L296.96,167.12L297,165.8" style="vector-effect: non-scaling-stroke; fill: none; stroke: rgb(239, 85, 59); stroke-opacity: 1; stroke-width: 2px; opacity: 1;"/></g><g class="points"/><g class="text"/></g></g></g><g class="overplot"/><path class="xlines-above crisp" d="M0,0" style="fill: none;"/><path class="ylines-above crisp" d="M0,0" style="fill: none;"/><g class="overlines-above"/><g class="xaxislayer-above"><g class="xtick"><text text-anchor="middle" x="0" y="433" transform="translate(80,0)" style="font-family: 'Open Sans', verdana, arial, sans-serif; font-size: 12px; fill: rgb(42, 63, 95); fill-opacity: 1; white-space: pre;">0</text></g><g class="xtick"><text text-anchor="middle" x="0" y="433" transform="translate(164.43,0)" style="font-family: 'Open Sans', verdana, arial, sans-serif; font-size: 12px; fill: rgb(42, 63, 95); fill-opacity: 1; white-space: pre;">20k</text></g><g class="xtick"><text text-anchor="middle" x="0" y="433" transform="translate(248.87,0)" style="font-family: 'Open Sans', verdana, arial, sans-serif; font-size: 12px; fill: rgb(42, 63, 95); fill-opacity: 1; white-space: pre;">40k</text></g><g class="xtick"><text text-anchor="middle" x="0" y="433" transform="translate(333.3,0)" style="font-family: 'Open Sans', verdana, arial, sans-serif; font-size: 12px; fill: rgb(42, 63, 95); fill-opacity: 1; white-space: pre;">60k</text></g></g><g class="yaxislayer-above"><g class="ytick"><text text-anchor="end" x="79" y="4.199999999999999" transform="translate(0,408.35)" style="font-family: 'Open Sans', verdana, arial, sans-serif; font-size: 12px; fill: rgb(42, 63, 95); fill-opacity: 1; white-space: pre;">7</text></g><g class="ytick"><text text-anchor="end" x="79" y="4.199999999999999" transform="translate(0,365.67)" style="font-family: 'Open Sans', verdana, arial, sans-serif; font-size: 12px; fill: rgb(42, 63, 95); fill-opacity: 1; white-space: pre;">8</text></g><g class="ytick"><text text-anchor="end" x="79" y="4.199999999999999" transform="translate(0,328.03)" style="font-family: 'Open Sans', verdana, arial, sans-serif; font-size: 12px; fill: rgb(42, 63, 95); fill-opacity: 1; white-space: pre;">9</text></g><g class="ytick"><text text-anchor="end" x="79" y="4.199999999999999" transform="translate(0,294.35)" style="font-family: 'Open Sans', verdana, arial, sans-serif; font-size: 12px; fill: rgb(42, 63, 95); fill-opacity: 1; white-space: pre;">10</text></g><g class="ytick"><text text-anchor="end" x="79" y="4.199999999999999" transform="translate(0,263.89)" style="font-family: 'Open Sans', verdana, arial, sans-serif; font-size: 12px; fill: rgb(42, 63, 95); fill-opacity: 1; white-space: pre;">11</text></g><g class="ytick"><text text-anchor="end" x="79" y="4.199999999999999" transform="translate(0,236.08)" style="font-family: 'Open Sans', verdana, arial, sans-serif; font-size: 12px; fill: rgb(42, 63, 95); fill-opacity: 1; white-space: pre;">12</text></g><g class="ytick"><text text-anchor="end" x="79" y="4.199999999999999" transform="translate(0,210.49)" style="font-family: 'Open Sans', verdana, arial, sans-serif; font-size: 12px; fill: rgb(42, 63, 95); fill-opacity: 1; white-space: pre;">13</text></g><g class="ytick"><text text-anchor="end" x="79" y="4.199999999999999" transform="translate(0,186.81)" style="font-family: 'Open Sans', verdana, arial, sans-serif; font-size: 12px; fill: rgb(42, 63, 95); fill-opacity: 1; white-space: pre;">14</text></g><g class="ytick"><text text-anchor="end" x="79" y="4.199999999999999" transform="translate(0,164.76)" style="font-family: 'Open Sans', verdana, arial, sans-serif; font-size: 12px; fill: rgb(42, 63, 95); fill-opacity: 1; white-space: pre;">15</text></g><g class="ytick"><text text-anchor="end" x="79" y="4.199999999999999" transform="translate(0,144.13)" style="font-family: 'Open Sans', verdana, arial, sans-serif; font-size: 12px; fill: rgb(42, 63, 95); fill-opacity: 1; white-space: pre;">16</text></g><g class="ytick"><text text-anchor="end" x="79" y="4.199999999999999" transform="translate(0,124.75)" style="font-family: 'Open Sans', verdana, arial, sans-serif; font-size: 12px; fill: rgb(42, 63, 95); fill-opacity: 1; white-space: pre;">17</text></g><g class="ytick"><text text-anchor="end" x="79" y="4.199999999999999" transform="translate(0,106.48)" style="font-family: 'Open Sans', verdana, arial, sans-serif; font-size: 12px; fill: rgb(42, 63, 95); fill-opacity: 1; white-space: pre;">18</text></g></g><g class="overaxes-above"/></g></g><g class="polarlayer"/><g class="ternarylayer"/><g class="geolayer"/><g class="funnelarealayer"/><g class="pielayer"/><g class="treemaplayer"/><g class="sunburstlayer"/><g class="glimages"/><defs id="topdefs-4faf7d"><g class="clips"/><clipPath id="legend4faf7d"><rect width="305" height="48" x="0" y="0"/></clipPath></defs><g class="layer-above"><g class="imagelayer"/><g class="shapelayer"/></g><g class="infolayer"><g class="legend" pointer-events="all" transform="translate(382.94,100)"><rect class="bg" shape-rendering="crispEdges" style="stroke: rgb(68, 68, 68); stroke-opacity: 1; fill: rgb(255, 255, 255); fill-opacity: 1; stroke-width: 0px;" width="305" height="48" x="0" y="0"/><g class="scrollbox" transform="" clip-path="url('#legend4faf7d')"><g class="groups"><g class="traces" transform="translate(0,14.5)" style="opacity: 1;"><text class="legendtext" text-anchor="start" x="40" y="4.680000000000001" style="font-family: 'Open Sans', verdana, arial, sans-serif; font-size: 12px; fill: rgb(42, 63, 95); fill-opacity: 1; white-space: pre;">Encoder Only Attention For MLM</text><g class="layers" style="opacity: 1;"><g class="legendfill"/><g class="legendlines"><path class="js-line" d="M5,0h30" style="fill: none; stroke: rgb(99, 110, 250); stroke-opacity: 1; stroke-width: 2px;"/></g><g class="legendsymbols"><g class="legendpoints"/></g></g><rect class="legendtoggle" x="0" y="-9.5" width="299.453125" height="19" style="fill: rgb(0, 0, 0); fill-opacity: 0;"/></g><g class="traces" transform="translate(0,33.5)" style="opacity: 1;"><text class="legendtext" text-anchor="start" x="40" y="4.680000000000001" style="font-family: 'Open Sans', verdana, arial, sans-serif; font-size: 12px; fill: rgb(42, 63, 95); fill-opacity: 1; white-space: pre;">Cross Attention With Encoder Attention For MLM</text><g class="layers" style="opacity: 1;"><g class="legendfill"/><g class="legendlines"><path class="js-line" d="M5,0h30" style="fill: none; stroke: rgb(239, 85, 59); stroke-opacity: 1; stroke-width: 2px;"/></g><g class="legendsymbols"><g class="legendpoints"/></g></g><rect class="legendtoggle" x="0" y="-9.5" width="299.453125" height="19" style="fill: rgb(0, 0, 0); fill-opacity: 0;"/></g></g></g><rect class="scrollbar" rx="20" ry="3" width="0" height="0" style="fill: rgb(128, 139, 164); fill-opacity: 1;" x="0" y="0"/></g><g class="g-gtitle"/><g class="g-xtitle"><text class="xtitle" x="228.5" y="460.8" text-anchor="middle" style="font-family: 'Open Sans', verdana, arial, sans-serif; font-size: 14px; fill: rgb(42, 63, 95); opacity: 1; font-weight: normal; white-space: pre;">Steps</text></g><g class="g-ytitle"><text class="ytitle" transform="rotate(-90,40.840625,260)" x="40.840625" y="260" text-anchor="middle" style="font-family: 'Open Sans', verdana, arial, sans-serif; font-size: 14px; fill: rgb(42, 63, 95); opacity: 1; font-weight: normal; white-space: pre;">MLM Loss</text></g></g></svg>